<?xml version="1.0" encoding="UTF-8"?>
<svg id="_Слой_1" data-name="Слой 1" xmlns="http://www.w3.org/2000/svg" viewBox="0 0 222.62 224.19">
  <defs>
    <style>
      .cls-1 {
        fill: #f3f8fa;
      }

      .cls-2 {
        fill: #a8d5f9;
      }

      .cls-3 {
        fill: #06a1fb;
      }

      .cls-4 {
        fill: #f1f6f9;
      }

      .cls-5 {
        fill: #b8cdf5;
      }

      .cls-6 {
        fill: #0b0a0a;
      }
    </style>
  </defs>
  <path class="cls-3" d="M191.99,159.71c-.83-1-2.35-.89-2.45-1.02-2.37-2.9-.28-2.36-5-4.99-1.69-.94-1.75-1.24-3.99-2-.44-.15-1.3.31-1.89-.09-.58-5.38-1.42-9.81-3.11-14.89-4.84-14.58-16.8-26.68-31-32.45-3.59-1.46-10.4-2.44-12.93-4.06-4.65-3-8.27-10.62-16.14-14.83-10.97-5.88-27.22-7.72-18.88,9.36-8.33.36-5.53,6.32-7.16,8.84-.46.73-12.83,4.83-15.86,6.63-12.9,7.65-21.06,20.48-22.44,35.51-10.58,4.79-27,9.93-21.5,24.96,1.35.17,2.66,2.71,4.08,3.43,10.4,5.3,23.12-2.34,31.19-1.23,2.93.41,8.79,5.07,12.63,5.37l10.07,7.42c4.31.14,8.67-.07,12.99,0,2.2-1.04,7.86-5.8,9.54-6.03,2.05-.27,4.55,1.03,6.91,1.08,13.71.27,26.18-.19,39.71-2.34,3.39-.54,7.28-2.64,10.32-2.75,7.13-.26,11.97,4.22,20.17.27.68-.33,5.12-3.92,5.29-4.22,1.48-2.57,1.36-9.68-.55-11.97ZM136.64,151.06c-.64,1.09-1.95.53-2.06.64-.13.13.55,1.32-.64,2.07-7.46,4.76-19.97,1.25-20.41-8.58-.51-11.13,6.06-6.62,12.05-5.48,4.5.86,9.35.85,13.58,2.96.53.67-1.8,7.17-2.52,8.39ZM167.55,150.7c-4.34,7.31-10.45,3.37-15.99,3-2.54-3.48-4.6-6.88-4.06-11.43.04-.21,3.69-1.51,4.06-1.56,1.87-.25,4.23.32,6,0,2.28-.41,6.07-1.61,8-2.99.51.51,4.3,1.56,4.99,3.99-1.35,3.05-1.26,6.08-3,8.99Z"/>
  <path class="cls-5" d="M29.64,170.69c1.35.17,2.66,2.71,4.07,3.43,10.41,5.3,23.13-2.34,31.19-1.23,2.94.4,8.79,5.07,12.63,5.37l10.07,7.42c-11.29-.36-24.23-1.01-35.47-2.01-4.84-.43-36.02-3.88-37.48-6-2.99-4.35,12.82-7.25,14.98-6.97Z"/>
  <path class="cls-5" d="M200.53,177.66c-31.99,8.21-66.92,8.57-99.93,8.01,2.2-1.04,7.86-5.8,9.54-6.03,2.05-.27,4.55,1.03,6.91,1.08,13.71.27,26.18-.19,39.71-2.34,3.39-.54,7.28-2.64,10.32-2.75,7.13-.26,11.97,4.22,20.17.27.68-.33,5.12-3.92,5.29-4.22l7.55,2.94.44,3.04Z"/>
  <path class="cls-4" d="M133.94,153.77c-7.46,4.76-19.97,1.25-20.41-8.58-.51-11.13,6.06-6.62,12.05-5.48-2.47,6.3,1.19,15.6,9,11.99-.13.13.55,1.32-.64,2.07Z"/>
  <path class="cls-1" d="M167.55,150.7c-4.34,7.31-10.45,3.37-15.99,3-2.54-3.48-4.6-6.88-4.06-11.43.04-.21,3.69-1.51,4.06-1.56,1.87-.25,4.23.32,6,0-.91,7.18,1.89,13.8,9.99,9.99Z"/>
  <path class="cls-6" d="M136.64,151.06c-.64,1.09-1.95.53-2.06.64-7.81,3.61-11.47-5.69-9-11.99,4.5.86,9.35.85,13.58,2.96.53.67-1.8,7.17-2.52,8.39Z"/>
  <path class="cls-6" d="M170.55,141.71c-1.35,3.05-1.26,6.08-3,8.99-8.1,3.81-10.9-2.81-9.99-9.99,2.28-.41,6.07-1.61,8-2.99.51.51,4.3,1.56,4.99,3.99Z"/>
  <path class="cls-2" d="M37.64,119.75c-1.26,2.54-5.94,2.82-8.46,3.02-13.7,1.11-28.78-.64-42.5-1.04-.49-3.02.75-1.59,2.43-2.02,4.28-1.08,12.47-1.83,17.01-2.02,10.55-.42,21.11.62,31.52,2.05Z"/>
  <path class="cls-2" d="M67.61,95.78c1.51,1.58-.14,1.76-1.5,1.96-15.51,2.28-31.87.77-47.45.02-.49-3.02.75-1.59,2.43-2.02,4.13-1.04,11.66-1.81,16.01-2.02,10.1-.48,20.65.01,30.52,2.05Z"/>
  <path class="cls-5" d="M12.15,145.71c-1.11-.16-3.22-1.24-2.49-2.99,6.83-.31,12.23-2.23,18.98.55,1.59.66,2.44-.14,2,2.44-5.76-.6-12.94.82-18.49,0Z"/>
  <path class="cls-2" d="M20.65,156.7c.35,2.23-.9,2.36-2.55,2.94-2.66.93-16.38.6-18.45-.42-.46-.23-1.26-1.3-.98-1.5,1.59.65,3.74-1.01,4.5-1.01h17.49Z"/>
</svg>