<?xml version="1.0" encoding="UTF-8"?>
<svg id="_Слой_1" data-name="Слой 1" xmlns="http://www.w3.org/2000/svg" viewBox="0 0 222.62 224.19">
  <defs>
    <style>
      .cls-1 {
        fill: #f3f8fa;
      }

      .cls-2 {
        fill: #06a1fb;
      }

      .cls-3 {
        fill: #b8cdf5;
      }

      .cls-4 {
        fill: #0b0a0a;
      }

      .cls-5 {
        fill: #01131d;
      }
    </style>
  </defs>
  <path class="cls-3" d="M156.83,183.86c2.46-.45,14.4,2.87,7.57,6.07s-29.69,4.63-38.01,4.96c-11.51.46-52.3-.12-61.22-4.82-6.23-3.29,3.05-6.05,6.71-5.21,1.22.28,2.41,2.29,3.65,2.84,8.27,3.72,16.06,2.69,24.32-.36,2.18-.81,4.88-3.32,6.54-3.47,1.77-.16,20.17-.19,21.85,0,4.64.53,9.6,5.19,17.04,5.01,6.13-.14,9.5-4.65,11.54-5.03Z"/>
  <path class="cls-2" d="M168.82,127.91c-.29-5.1-1.48-7.57-3-11.98-5.03-14.64-16.1-26.39-31.02-31.43-2.96-1-11.4-2.04-12.71-2.78-.57-.33-6.48-7.95-8.76-9.73-10.91-8.51-35.35-13.9-23.46,6.96-10.04.51-5.3,10.17-6.47,12.97-1.09,2.63-10.31,9.72-13.34,15.69-2.15,4.27-4,15.15-5.08,16.68-.56.81-6.21,1.86-8.59,3.62-8.5,6.25-6.47,17.85,2.15,22.83,1.88,1.09,6.62,1.88,7.12,2.38.26.25,1.77,5.18,2.71,6.78,1.27,2.16,4.55,6.16,5.09,7.95,1.43,4.75-5.02,10.87-1.58,17.01,1.22.28,2.41,2.29,3.65,2.84,8.27,3.72,16.05,2.69,24.32-.36,2.19-.8,4.88-3.31,6.55-3.47,1.76-.16,20.17-.19,21.85.01,4.64.53,9.6,5.18,17.04,5.01,6.13-.15,9.49-4.65,11.54-5.03.97-3.59-1.39-10.91-.28-13.68.88-2.22,5.43-7.11,7.1-9.97.88-1.52,1.83-5.73,2.38-6.13.94-.68,5.86-.86,8.74-2.74,10.47-6.87,6.39-22.95-5.95-23.43ZM99.93,111.54c1.12-9.94,12.35-14.74,20.84-10.02,4.27,2.37,4.18,4.65,5.08,8.41.45,1.91.97,2.62,1,5,.19,19.9-29.08,15.8-26.92-3.39ZM139.84,136.91c-3.11,4.74-8.35,6.95-12.57,2.04-1.34-1.55-1.82-2.22-.42-4.04,4.41.47,7.54,1.7,12.38-.08,1.16.23.44,1.9.61,2.08ZM138.35,124.91c-11.68-9.14-3.32-30.21,11.88-22.86,4.07,1.97,3.17,2.45,4.6,5.88,1.07,2.56,1.86,4.02,2,7,.5,11.06-9.65,16.9-18.48,9.98Z"/>
  <path class="cls-1" d="M126.85,114.93c.19,19.9-29.08,15.8-26.92-3.39,1.12-9.94,12.35-14.74,20.84-10.02,4.27,2.37,4.18,4.65,5.08,8.41-12-16.13-21.71,12.48-5.48,11.08,4.13-.36,4.54-3.17,6.48-6.08Z"/>
  <path class="cls-1" d="M138.35,124.91c-11.68-9.14-3.32-30.21,11.88-22.86,4.07,1.97,3.17,2.45,4.6,5.88-12.08-10.93-17.91,15.35-3.55,13,3.43-.56,3.31-4.01,5.55-6,.5,11.06-9.65,16.9-18.48,9.98Z"/>
  <path class="cls-4" d="M126.85,114.93c-1.94,2.91-2.35,5.72-6.48,6.08-16.23,1.4-6.52-27.21,5.48-11.08.45,1.91.97,2.62,1,5Z"/>
  <path class="cls-4" d="M156.83,114.93c-2.24,1.99-2.12,5.44-5.55,6-14.36,2.35-8.53-23.93,3.55-13,1.07,2.56,1.86,4.02,2,7Z"/>
  <path class="cls-5" d="M139.84,136.91c-3.11,4.74-8.35,6.95-12.57,2.04-1.34-1.55-1.82-2.22-.42-4.04,4.41.47,7.54,1.7,12.38-.08,1.16.23.44,1.9.61,2.08Z"/>
</svg>