<?xml version="1.0" encoding="UTF-8"?>
<svg id="_Слой_1" data-name="Слой 1" xmlns="http://www.w3.org/2000/svg" viewBox="0 0 222.62 224.19">
  <defs>
    <style>
      .cls-1 {
        fill: #f3f8fa;
      }

      .cls-2 {
        fill: #8fcafa;
      }

      .cls-3 {
        fill: #06a1fb;
      }

      .cls-4 {
        fill: #f1f6f9;
      }

      .cls-5 {
        fill: #0b0a0a;
      }

      .cls-6 {
        fill: #bbcdf3;
      }

      .cls-7 {
        fill: #01131d;
      }
    </style>
  </defs>
  <path class="cls-6" d="M143.82,191.9c-2.19,3.21-39.59,3.33-45.46,3-3.59-.2-19.57-1.58-21.04-3.94-.63-1.01-.51-1.93-.46-3.03,13.99-2.41,28.22-3.75,42.46-3,4.61.24,19.35,1.43,22.78,3.21,1.56.81,2.56,2.53,1.71,3.76Z"/>
  <path class="cls-2" d="M57.88,110c.69.74-4.59,12.38-4.78,14.71s.94,3.93.37,7.29c-.22,1.27-4.4,13.4-6.57,10.95-.27-1.91.67-3.65.78-5.5.38-6.77,2.87-19.01,7.02-25.16.87-1.28,1.13-2.73,3.19-2.3Z"/>
  <path class="cls-2" d="M71.87,144.96c.71.68-2.76,11.57-5.48,10.98-4.08-.89,2.67-13.65,5.48-10.98Z"/>
  <path class="cls-3" d="M166.81,76.03c-.13-3.81-1.05-4.89-2-8-5.6-18.23-18.72-28.82-36.92-33.52-2.24-.58-5.42.02-7.05-.94-.44-.26-5.11-5.83-7-7.49-5.67-4.99-5.97-4.69-12.99-7-2.02-.66-2.31-1.87-2.72-1.96-10.71-2.3-17.17,5.36-9.27,13.94-10.25,1.8-5.23,8.15-6.16,12.3-.45,2.05-5.2,4.3-6.88,6.15-5.8,6.38-10.92,15.69-10.95,24.52-5.06-.12-6.45.64-9.99,3.99-6.26,5.95-6.26,15.07,1.07,20.42,2.07,1.51,8.31,3.4,8.7,3.79.75.76,1.45,6.89,3.06,8.45-4.75,6.69-9.83,10.23-7.62,19.58,2,8.4,16.46,5.42,22.61,4.05,3.34-.74,9.78-3.91,11.81-4.08,2.07-.17,7.6,2.4,10.85,2.73,22.3,2.26,41.48-3.88,54.68-22.24,1.44-1.99,3.27-6.79,4.27-7.72,2.04-1.91,8-1.54,11.5-5.48,7.67-8.65,2.38-20.5-9-21.49ZM137.83,85.02c1.35,9.19-13.9,8.84-11,0,1.54,1.56,8.74.99,11,0ZM117.57,51.82c5.06,1.67,4.73,3.58,6.26,7.22,1.69,4,1.94,4.43,1,8.99-1.04,5.06-1.33,8.44-7.72,9.76-24,4.96-22.24-33.45.46-25.97ZM155.87,66.47c-1.05,17.05-22.42,13.61-23.98-1.04-1.69-15.96,19.51-19.75,22.92-3.39.28,1.32,1.22,1.75,1.06,4.43Z"/>
  <path class="cls-2" d="M80.86,144.96c1.23,1.22-6.23,18.29-7.79,20.67-1.33,2.02-3.47,5.25-6.19,5.29-.94-1.01,9.84-24.31,10.94-25.31s1.69-.71,3.04-.65Z"/>
  <path class="cls-2" d="M89.86,142.96c.88.98-3.03,13.87-6.98,12.98-1.26-1.46,4.79-15.42,6.98-12.98Z"/>
  <path class="cls-1" d="M124.83,68.03c-1.04,5.06-1.33,8.44-7.72,9.76-24,4.96-22.24-33.45.46-25.97,5.06,1.67,4.73,3.58,6.26,7.22-11.04-10.82-19.44,10.84-6.25,12.82,3.15.47,4.87-2.4,7.25-3.83Z"/>
  <path class="cls-4" d="M155.87,66.47c-1.05,17.05-22.42,13.61-23.98-1.04-1.69-15.96,19.51-19.75,22.92-3.39-.15-.7-3.19-4.76-4.24-5.27-10.81-5.22-12.59,17.37-.04,14.56,2.61-1.23,4.88-6.59,4.28-9.29.28,1.32,1.22,1.75,1.06,4.43Z"/>
  <path class="cls-5" d="M124.83,68.03c-2.38,1.43-4.1,4.3-7.25,3.83-13.19-1.98-4.79-23.64,6.25-12.82,1.69,4,1.94,4.43,1,8.99Z"/>
  <path class="cls-7" d="M126.83,85.02c1.54,1.56,8.74.99,11,0,1.35,9.19-13.9,8.84-11,0Z"/>
  <path class="cls-5" d="M154.82,62.04c.59,2.7-1.67,8.06-4.28,9.29-12.55,2.82-10.77-19.78.04-14.56,1.05.51,4.09,4.57,4.24,5.27Z"/>
</svg>