<?xml version="1.0" encoding="UTF-8"?>
<svg id="_Слой_1" data-name="Слой 1" xmlns="http://www.w3.org/2000/svg" viewBox="0 0 222.62 224.19">
  <defs>
    <style>
      .cls-1 {
        fill: #06a1fb;
      }

      .cls-2 {
        fill: #b8cdf5;
      }

      .cls-3 {
        fill: #01131d;
      }
    </style>
  </defs>
  <path class="cls-1" d="M167.56,152.86c-.08-1.72-.74-3.21-1.17-4.81-.92-3.35-.98-6.3-2.52-9.98-2.82-6.77-10.27-17.75-17.47-19.99-.25-4.38-14.9-9.24-18.96-10.54-1.52-.49-3.79-.09-4.8-.68-1.84-1.09-8.13-11.54-15.16-15.32-10.87-5.83-28.16-7.35-19.05,9.54-9.08-.57-5.81,7.96-7.12,9.87-.29.43-7.54,2.84-9.53,3.96-8.9,5-15.26,12.32-19.18,21.79-1.21,2.93-2.83,11.23-3.64,12.34-.68.93-7.29,3.07-9.43,4.57-6.07,4.22-10.88,12.5-6.06,19.41.99,0,6.35,3.87,10.55,4.03,4.74.18,12.53-2.65,16.68-1.86,6.31,1.21,10.51,7.66,15.74,9.82,4.71,1.95,10.07,2.89,14.99,1,2.14-.82,6.64-5.58,7.61-5.76,1.11-.21,3.2.83,4.84.81,13.32-.14,26.66.35,39.9-1.16,4.51-.52,9.83-2.93,14.11-2.95,7.12-.04,11.13,4.4,19.19.27.74-.38,5.1-3.86,5.29-4.2,5.33-9.25-5.93-19.48-14.81-20.16ZM124.42,168.53c-2.5,1.55-5.63-4.71-7.64-5.43-2.5-.43-6.61,8.57-8.86,4.93-1.73-2.78,5.86-5.86,5.43-8.36-1.82-2.99-6.43-4.51-5.92-8.62,4.11-.5,5.63,4.1,8.63,5.92,2.5.43,6.6-8.57,8.86-4.93,1.55,2.5-4.71,5.62-5.43,7.63-.44,2.51,8.56,6.61,4.93,8.86ZM153.91,169.02l-6.88-5.92-7.11,5.92c-4.6-3.14,4.89-6.55,4.41-9.35l-5.92-7.11c3.14-4.6,6.55,4.89,9.35,4.41l7.12-5.92c4.59,3.14-4.89,6.54-4.41,9.34l5.79,4.76.12,2.37-2.47,1.5Z"/>
  <path class="cls-2" d="M188.32,178.95c-29.05,8.76-61.11,8.39-91.4,8.08-1.69-.02-4.45.63-5.49-1.02,2.14-.82,6.64-5.58,7.61-5.76,1.11-.21,3.2.83,4.84.81,13.32-.14,26.66.35,39.9-1.16,4.51-.52,9.83-2.93,14.11-2.95,7.12-.04,11.13,4.4,19.19.27.74-.38,5.1-3.86,5.29-4.2l5.56,2.94.39,2.99Z"/>
  <path class="cls-2" d="M33.47,173.02c.99,0,6.35,3.87,10.55,4.03,4.74.18,12.53-2.65,16.68-1.86,6.31,1.21,10.51,7.65,15.74,9.82-1.94,1.72-6.04,1.16-8.49.98-7.06-.51-38.8-3.65-42.87-6.9-3.82-3.05,6.62-6.06,8.39-6.07Z"/>
  <path class="cls-3" d="M124.42,168.53c-2.5,1.55-5.63-4.71-7.64-5.43-2.5-.43-6.61,8.57-8.86,4.93-1.73-2.78,5.86-5.86,5.43-8.36-1.82-2.99-6.43-4.51-5.92-8.62,4.11-.5,5.63,4.1,8.63,5.92,2.5.43,6.6-8.57,8.86-4.93,1.55,2.5-4.71,5.62-5.43,7.63-.44,2.51,8.56,6.61,4.93,8.86Z"/>
  <path class="cls-3" d="M156.38,167.52l-2.47,1.5-6.88-5.92-7.11,5.92c-4.6-3.14,4.89-6.55,4.41-9.35l-5.92-7.11c3.14-4.6,6.55,4.89,9.35,4.41l7.12-5.92c4.59,3.14-4.89,6.54-4.41,9.34l5.79,4.76.12,2.37Z"/>
</svg>