<?xml version="1.0" encoding="UTF-8"?>
<svg id="_Слой_1" data-name="Слой 1" xmlns="http://www.w3.org/2000/svg" viewBox="0 0 222.62 224.19">
  <defs>
    <style>
      .cls-1 {
        fill: #e885b3;
      }

      .cls-2 {
        fill: #06a1fb;
      }

      .cls-3 {
        fill: #b8cdf5;
      }

      .cls-4 {
        fill: #0b0a0a;
      }

      .cls-5 {
        fill: #01131d;
      }
    </style>
  </defs>
  <path class="cls-2" d="M162.69,121.7c-.03-1.11-.74-3.54-1-4.99-2.69-14.73-8.16-21.01-18.99-29.97-4.48-3.71-4.92-5.47-11.31-8.18-4.81-2.03-12.17-2.66-15.63-4.35-1.7-.83-4.83-5.96-7.03-7.96-5.57-5.1-22.75-14.55-28.46-6.46-4.69,6.65,2.96,11.49,2.47,11.95-4.41-.02-7.87,3.04-8.07,7.52-.07,1.72,1.13,3.92.91,4.9-.2.89-10.22,9.33-12.65,13.24-4.42,7.14-3.91,11.55-6.17,18.31-.76,2.26-7.03,3.75-10,5.99-10.5,7.95-6.41,20.21,4.99,24.51,1.56.59,3.96.11,4.83.65.92.57,5.36,13.48,8.69,14.8-1.02,4.33-4.37,8.22-3.52,12.99,1.85,10.25,17.35,9.58,24.98,7.48,3.64-1,6.48-3.28,8.95-4.02,1.19-.36,22.03-.66,24.51-.49,7.47.52,11.8,5.54,21.95,3.96,2.46-.38,7.89-3.87,8.56-5.93,1.25-3.86-2.29-9.73-1.1-12.54.33-.78,8.62-13.72,9.32-14.21,1.08-.77,5.81-.9,8.72-2.77,10.44-6.71,7.18-22.71-4.95-24.43ZM107.36,121.78c-2.99,1.81-4.51,6.42-8.62,5.91-1.12-4.03,6.01-6.49,6-9.47-1.59-1.01-8.05-5.09-6.51-7.51,2.7-4.27,7.47,5.34,9.86,4.93,2.99-1.82,4.51-6.42,8.62-5.92,1.07,4.07-3.36,6.22-6.01,8.49-.02,2.66,7.52,6.79,6.53,8.49-2.53,4.35-7.54-5.33-9.87-4.92ZM131.71,145.68c-.76,2.14.62,7.51-3.7,8.83-6.29,1.91-8.59-6.5-10.29-10.83-.21-.53-1.71-1.18-1.69-2.45.09-5.61,17.14-6.44,18.55-.85.8,3.16-2.65,4.68-2.87,5.3ZM148.7,126.7c-1.02.43-2.87.91-3,1l-5.63-5.92c-2.8-.49-6.21,9-9.36,4.4l5.92-7.11c.42-2.42-7.24-5.64-5.92-9.35,3.65-1.36,7.07,6.44,9.39,5.95,2.86-2.54,3.86-6.54,8.59-5.95,1.33,3.71-6.33,6.92-5.92,9.35l5.93,7.63Z"/>
  <path class="cls-3" d="M160.69,181.13c-.71,2.9-27.19,6.3-31.44,6.55-18.69,1.09-44.51.8-62.86-2.17-2.44-.4-13.42-1.8-12.63-5.35,1.85-3.18,7.9-1.07,7.99-5.51,1.85,10.25,17.35,9.58,24.98,7.48,3.64-1,6.48-3.28,8.95-4.02,1.19-.36,22.03-.66,24.51-.49,7.47.52,11.8,5.54,21.95,3.96,2.46-.38,7.89-3.87,8.56-5.93,2.68,2.24,8.85,1.56,9.99,5.48Z"/>
  <path class="cls-5" d="M117.23,126.7c-2.53,4.35-7.54-5.33-9.87-4.92-2.99,1.81-4.51,6.42-8.62,5.91-1.12-4.03,6.01-6.49,6-9.47-1.59-1.01-8.05-5.09-6.51-7.51,2.7-4.27,7.47,5.34,9.86,4.93,2.99-1.82,4.51-6.42,8.62-5.92,1.07,4.07-3.36,6.22-6.01,8.49-.02,2.66,7.52,6.79,6.53,8.49Z"/>
  <path class="cls-5" d="M142.77,119.07l5.93,7.63c-1.02.43-2.87.91-3,1l-5.63-5.92c-2.8-.49-6.21,9-9.36,4.4l5.92-7.11c.42-2.42-7.24-5.64-5.92-9.35,3.65-1.36,7.07,6.44,9.39,5.95,2.86-2.54,3.86-6.54,8.59-5.95,1.33,3.71-6.33,6.92-5.92,9.35Z"/>
  <path class="cls-1" d="M131.71,145.68c-.76,2.14.62,7.51-3.7,8.83-6.29,1.91-8.59-6.5-10.29-10.83,4.83-3.11,10.73-3.15,13.99,2Z"/>
  <path class="cls-4" d="M131.71,145.68c-3.26-5.15-9.16-5.11-13.99-2-.21-.53-1.71-1.18-1.69-2.45.09-5.61,17.14-6.44,18.55-.85.8,3.16-2.65,4.68-2.87,5.3Z"/>
</svg>