<?xml version="1.0" encoding="UTF-8"?>
<svg id="_Слой_1" data-name="Слой 1" xmlns="http://www.w3.org/2000/svg" viewBox="0 0 222.62 224.19">
  <defs>
    <style>
      .cls-1 {
        fill: #f3f8fa;
      }

      .cls-2 {
        fill: #8fcafa;
      }

      .cls-3 {
        fill: #65759b;
      }

      .cls-4 {
        fill: #f1f6f9;
      }

      .cls-5 {
        fill: #35a8fc;
      }

      .cls-6 {
        fill: #35a8fa;
      }

      .cls-7 {
        fill: #0b0a0a;
      }

      .cls-8 {
        fill: #bbcdf3;
      }

      .cls-9 {
        fill: #50b6fa;
      }
    </style>
  </defs>
  <path class="cls-6" d="M178.73,93.23c-.71-3.25-1.76-5.11-3-7.99-5.4-12.54-14.07-21.49-27.21-26.24-5.65-2.05-14.72-2.46-18.73-4.26-.67-.29-6-5.06-8.03-6.46-5.28-3.67-6.32-4.68-12.99-6-11.09-2.19-20.5,1.67-11,12.51v1.47c-9.61.74-4.13,8.5-5.13,12.27-.42,1.58-4.84,4.88-6.27,6.81-4.66,6.29-8.98,13.8-8.58,21.89-4.65-.12-4.37.07-7.99,2-13.47,7.18-5.91,24.7,7.79,25.17l5.02,11.49c-8.9,10.75-13.35,38.82,8.85,29.45,4.01-1.69,16.66-10.83,18.87-11.19,3-.48,13.26,1.16,17.98,1.07,2.78-.05,5.12-.8,7.81-1.13,3.8,11.98,14.7,4.79,21.09-.95,6.92-6.21,4.96-8.33,8.07-14.91,1.93-4.09,10.34-10.41,10.61-16.87,20.23,0,25.94-27.22,2.84-28.13ZM112.69,84.73c.1-12.91,19.17-17.61,24.07-4.48.1.27-.09.67,0,1,2.26.69,1.96,2.58,2.06,4.44,1.01,19.13-26.28,17.62-26.13-.96ZM147.75,115.21c-5.53,2.08-5.61.56-8-3.99-.82-1.58-3.61-3.14-1.03-5.54l14.02-1.46c.18,5.6.58,8.89-4.99,10.99ZM145.18,87.31c-3.7-15.79,14.23-22.73,20.56-9.06.68,1.47,1.91,5.53,2,6.99.9,15.25-19.4,15.52-22.56,2.07Z"/>
  <path class="cls-1" d="M112.69,84.73c.1-12.91,19.17-17.61,24.07-4.48-3.52-3.2-8.39-4.55-11.43.05-8.06,12.2,16.29,20.38,11.43.95,2.26.69,1.96,2.58,2.06,4.44,1.01,19.13-26.28,17.62-26.13-.96Z"/>
  <path class="cls-4" d="M145.18,87.31c-3.7-15.79,14.23-22.73,20.56-9.06-19.05-11.05-12.13,24.82,2,6.99.9,15.25-19.4,15.52-22.56,2.07Z"/>
  <path class="cls-7" d="M125.33,80.3c3.04-4.6,7.91-3.25,11.43-.05.1.27-.09.67,0,1,4.86,19.43-19.49,11.25-11.43-.95Z"/>
  <path class="cls-7" d="M167.74,85.24c-14.13,17.83-21.05-18.04-2-6.99.68,1.47,1.91,5.53,2,6.99Z"/>
  <path class="cls-7" d="M147.75,115.21c-.13-3.39-5.52-6.64-8-3.99-.82-1.58-3.61-3.14-1.03-5.54l14.02-1.46c.18,5.6.58,8.89-4.99,10.99Z"/>
  <path class="cls-3" d="M147.75,115.21c-5.53,2.08-5.61.56-8-3.99,2.48-2.65,7.87.6,8,3.99Z"/>
  <path class="cls-8" d="M156.74,193.12c-.44.65-13.39,2.75-15.5,3-13.63,1.58-34.08,1.88-47.28-1.67-2.36-.63-6.81-.83-7.17-3.8,1.2-5.17,43.25-4.95,49.5-4.55,3.87.25,15.72,1.71,18.73,3.26,1.57.81,2.55,2.54,1.71,3.77Z"/>
  <path class="cls-5" d="M31.82,123.21c.34,4.22,1.7,7.81,5.06,10.42,2.13,1.65,6.41,1.68,5.94,4.55-2.34.11-5.93,1.34-7.54,2.97-2.76,2.79-1.58,8.98-5.44,9.03-.72-2.57-1.77-7.04-3.55-8.95-1.67-1.79-8.45-2.61-7.44-4.52.85-1.62,5.57-1.99,7.56-4.43,2.48-3.05,1.01-8.75,5.41-9.07Z"/>
  <path class="cls-2" d="M172.73,140.18c1.22,9.41-6.21,20.69-15.98,20.97,5.27-6.51,13.35-11.46,13-20.97h2.99Z"/>
  <path class="cls-9" d="M187.04,147.85c1.17.8,4.26,1.03,4.64,2.93.23,1.14-1.63,3.01-2.64,3.29-3.48.93-6.11-6.01-5.31-8.87,2.44-.63,2.22,1.91,3.31,2.66Z"/>
  <path class="cls-2" d="M170.74,160.16c-1.5-1.53,6.31-12.03,8.96-5.44.43,1.99-8.17,6.25-8.96,5.44Z"/>
  <path class="cls-9" d="M52.83,159.16c-2.74-2.15-1.02-8.89,1.47-7.98,5.02,1.84.65,9.64-1.47,7.98Z"/>
</svg>