<?xml version="1.0" encoding="UTF-8"?>
<svg id="_Слой_1" data-name="Слой 1" xmlns="http://www.w3.org/2000/svg" viewBox="0 0 222.62 224.19">
  <defs>
    <style>
      .cls-1 {
        fill: #3286fb;
      }

      .cls-2 {
        fill: #f3f8fa;
      }

      .cls-3 {
        fill: #b8cdf5;
      }

      .cls-4 {
        fill: #35a8fc;
      }

      .cls-5 {
        fill: #35a8fa;
      }

      .cls-6 {
        fill: #07a1fb;
      }

      .cls-7 {
        fill: #216fe5;
      }

      .cls-8 {
        fill: #50b6fa;
      }

      .cls-9 {
        fill: #01131d;
      }
    </style>
  </defs>
  <path class="cls-5" d="M148.39,131.04h-5.59c-.19-5.19-1.79-4.89-2.8-7.46-4.2-10.71-5.04-11.63-14-18.65-4.08-3.19-6.14-5.53-11.49-7.63-3.19-1.25-10.15-2.15-11.8-3.13-3.35-2-7.39-9.53-14.01-13.04-11.02-5.84-24.61-5.49-15.88,9.8-9.55-.49-4.91,9.68-5.71,11.05-.14.23-1.93.77-2.69,1.5-7.4,7.12-13.37,14.14-14.92,24.77-2.46,0-4.23,1.97-5.59,2.79-7.46,4.52-10.73,11.93-3.77,19.17,2.37,2.46,6.76,3.56,7.93,5.14.98,1.33,1.56,4.84,2.48,6.83.83,1.77,2.78,3.75,3.23,5.22,1.4,4.61-4.73,9.55-1.48,14.95,1.14.26,2.25,2.14,3.41,2.65,6.56,2.96,14.91,2.68,21.77.61,7.44-2.24,3.9-2.32,12.57-2.28,5,.02,15.77-1.3,19.44-.8,5.32.73,7.57,4.09,16.11,3.59,6.45-.37,7-3.1,9.75-3.76,2.03-4.92.55-8.64-.8-13.32l8.27-11.86c1.86-8.54,3.63-17.75,5.59-26.12ZM106.28,135.11c-3.33,5.84-11.85,5.82-16.63,1.95-2.55-2.05-4.54-7.83-.54-5.99,1.71.79,3.14,5.84,8.36,5.56,3.69-.21,8.38-7.14,9.87-5.58.58.61-.54,3.16-1.06,4.06ZM134.41,132.45c-3.23,10.02-19.13,9.29-19.61-1.4.85.07,1.82-.26,2.61.21.28.17.83,2.15,2.04,3.04,2.18,1.62,5.33,2.66,7.78,1.31.52-.29,8.04-8.05,7.17-3.16Z"/>
  <path class="cls-3" d="M141.15,187.7c-16.12,6.35-67.51,5.08-85.32,1.84-3.83-.69-8.31-1.27-11.49-3.43-1.94-2.98,5.9-4.23,7.95-3.76,1.14.26,2.25,2.14,3.41,2.65,6.56,2.96,14.91,2.68,21.77.61,7.44-2.24,3.9-2.32,12.57-2.28,5,.02,15.77-1.3,19.44-.8,5.32.73,7.57,4.09,16.11,3.59,6.45-.37,7-3.1,9.75-3.76,4.36-1.05,14.25,2.04,5.82,5.35Z"/>
  <path class="cls-9" d="M106.28,135.11c-3.33,5.84-11.85,5.82-16.63,1.95-2.55-2.05-4.54-7.83-.54-5.99,1.71.79,3.14,5.84,8.36,5.56,3.69-.21,8.38-7.14,9.87-5.58.58.61-.54,3.16-1.06,4.06Z"/>
  <path class="cls-9" d="M134.41,132.45c-3.23,10.02-19.13,9.29-19.61-1.4.85.07,1.82-.26,2.61.21.28.17.83,2.15,2.04,3.04,2.18,1.62,5.33,2.66,7.78,1.31.52-.29,8.04-8.05,7.17-3.16Z"/>
  <path class="cls-1" d="M157.73,124.52c3.76-14.9,6.65-30.08,11.2-44.77,15.67,7.36,35.68,1.31,49.01,14.01l-9.74,39.7c-2.45,5.59-9.26-.51-13.16-1.94-12.61-4.6-25.24-1.37-37.31-7.01ZM193.18,119.85c.29-.31.45-6.7,1.44-8.36s6.53-2.97,6.03-5.15c-7.33-2.98-6.82-5.06-9.81-11.67-2.33-.53-4.94,5.45-6,6.07-1.67.97-9.26-4.06-8.3,1.67.33,1.99,3.22,4.08,3.39,5.93.2,2.08-3.3,5.93-2.6,8.71,3.05.25,5.76-2.31,8.81-1.89s3.87,4.73,7.04,4.68Z"/>
  <path class="cls-7" d="M168.92,79.75c-4.55,14.7-7.43,29.88-11.19,44.77-.94,3.72-1.85,7.48-2.8,11.19-1.66,6.46-3.03,13.24-4.67,19.59-.61,2.35-2.25,8.57-4.37,9.19-5.63,1.62-3.79-4.15-3.09-7.32,1.86-8.54,3.63-17.75,5.59-26.12.11-.44,1.14-1.49,1.43-2.73,4.14-17.54,8.71-34.99,12.77-52.57,3.71-5.02,7.17-1.16,6.33,4Z"/>
  <path class="cls-6" d="M150.26,155.3c1.64-6.35,3.01-13.12,4.67-19.59,7.16,4.81,3.43,18.14-4.67,19.59Z"/>
  <path class="cls-2" d="M193.18,119.85c-3.18.04-4.04-4.26-7.04-4.68s-5.76,2.14-8.81,1.89c-.69-2.78,2.8-6.64,2.6-8.71-.18-1.85-3.06-3.94-3.39-5.93-.96-5.73,6.62-.7,8.3-1.67,1.06-.62,3.68-6.59,6-6.07,2.99,6.61,2.47,8.69,9.81,11.67.5,2.18-5.07,3.54-6.03,5.15s-1.15,8.05-1.44,8.36Z"/>
  <path class="cls-4" d="M42.95,56.43c.61.6,1.25,7.27,3.07,9.07,1.2,1.18,8.14,2.64,7.2,4.44-.75,1.43-4.41,1.78-6.09,3.24-3.34,2.91-1.94,8.71-6.02,9.36-.33-3.64-1.57-7.63-4.75-9.72-1.86-1.22-5.81-1.02-5.52-4.26,8.89-.71,7.17-5.69,10.04-10.95.46-.85.72-2.5,2.07-1.19Z"/>
  <path class="cls-4" d="M19.62,155.3c.5,1.5,1.16,5.41,2.08,6.32,1.37,1.33,5.86.54,5.39,3.93-5.87.36-5.42,3.18-7.38,7.08-.39.78-.23,2.76-1.94,1.32-.23-.2-.75-3.98-2.27-5.67-2.27-2.5-6.42-1.47-6.13-4.58,1.68-.35,3.83-.74,5.17-1.84,2.45-2.02,1.53-6.6,5.08-6.56Z"/>
  <path class="cls-8" d="M67.2,50.84l1.79,4.93c-1.83,3.58-4.45,2.94-5.51-.73.39-.94,2.06-5.57,3.72-4.21Z"/>
</svg>