<?xml version="1.0" encoding="UTF-8"?>
<svg id="_Слой_1" data-name="Слой 1" xmlns="http://www.w3.org/2000/svg" viewBox="0 0 222.62 224.19">
  <defs>
    <style>
      .cls-1 {
        fill: #f3f8fa;
      }

      .cls-2 {
        fill: #06a1fb;
      }

      .cls-3 {
        fill: #0b0a0a;
      }

      .cls-4 {
        fill: #bbcdf3;
      }

      .cls-5 {
        fill: #01131d;
      }
    </style>
  </defs>
  <path class="cls-4" d="M126.29,176.05c3.08.5,6.02,3.34,10.6,3.88,5.25.63,8.9-.79,13.38-.89,4.16-.09,23.83,2.18,12.65,6.15-16.39,5.83-59.97,4.62-78.1,2.83-2.87-.28-27.35-3.22-15.51-7.49,8.98-3.24,47.58-6.01,56.97-4.48Z"/>
  <path class="cls-2" d="M173.26,110.11c.68-7.18-1.39-9.56-3-14.99-4.75-16-13.34-27.6-29.72-33.72-3.96-1.48-11.69-2.31-14.21-3.78-2.88-1.68-7.94-8.99-13.73-12.25-12.26-6.9-32.44-8.37-20.27,10.28,0,.57-6.7,2.56-6.02,8.92.18,1.66,2.06,3.47,1.55,4.59-.66,1.46-5.55,5.07-7.05,6.97-3.92,4.97-6.98,11.13-8.74,17.24-.8,2.78-1.68,10.84-2.22,11.76-.58.97-5.5,2.75-7.52,5.47-4.74,6.35-4.17,15.83,2.66,20.33,3.12,2.05,9.66,2.01,6.68,7.18-8.24.27-13.73,11.52-6.87,16.99,4.4,3.51,2.76-.18,6.32,5.62,10.69,17.41,22.46,19.09,33.36.5l16.86,2.29,4.95,12.54c3.08.5,6.03,3.33,10.6,3.88,5.25.62,8.9-.79,13.39-.89,6.26-5.51-1.63-11.2-1.73-12.47-.04-.59,2.1-4.49,2.49-6.24.49-2.17-.28-5.77.45-7.06.34-.6,8.47-7.21,10.29-9.18,1.42-1.55,3.52-5.95,4.5-6.5,2.5-1.4,8.35-.78,12.68-3.3,10.99-6.38,7.18-23.3-5.7-24.18ZM108.3,98.62c-8.29-12.04,5.27-28.95,18.94-19.93,4.32,2.85,4.26,5.04,5.05,9.44.12.67,1.1,1.28,1.06,3.38-.26,13.32-17.29,18.37-25.05,7.11ZM141.58,117.89c-4.43,1.34-9.49-.61-9.29-5.78,5.12-.17,3.48,4.52,8.64,1.57.38-.22.26-2.55,2.84-1.56,3.35,1.28-.27,5.19-2.19,5.77ZM162.27,94.13c-.91,6.03-1.61,10.5-9.51,11.05-20.8,1.44-16.01-36.44,3.88-25.91,3.82,2.02,2.63,4.07,3.63,5.86,2.45,4.38,2.84,3.38,2,9Z"/>
  <path class="cls-1" d="M132.29,88.13c-1.31-6.04-11.34-8.81-13.55-2.06-5.06,15.43,16.45,15.43,13.55,2.06.12.67,1.1,1.28,1.06,3.38-.26,13.32-17.29,18.37-25.04,7.11-8.29-12.04,5.27-28.95,18.94-19.93,4.32,2.85,4.26,5.04,5.05,9.44Z"/>
  <path class="cls-1" d="M162.27,94.13c-.91,6.03-1.61,10.5-9.51,11.05-20.8,1.44-16.01-36.44,3.88-25.91,3.82,2.02,2.63,4.07,3.63,5.86-17.35-9.47-12.96,23.94,2,9Z"/>
  <path class="cls-3" d="M162.27,94.13c-14.96,14.94-19.35-18.47-2-9,2.45,4.38,2.84,3.38,2,9Z"/>
  <path class="cls-5" d="M141.58,117.89c-4.43,1.34-9.49-.61-9.29-5.78,5.12-.17,3.48,4.52,8.64,1.57.38-.22.26-2.55,2.84-1.56,3.35,1.28-.27,5.19-2.19,5.77Z"/>
  <path class="cls-3" d="M132.29,88.13c2.9,13.37-18.6,13.37-13.55-2.06,2.21-6.75,12.24-3.98,13.55,2.06Z"/>
</svg>