<?xml version="1.0" encoding="UTF-8"?>
<svg id="_Слой_1" data-name="Слой 1" xmlns="http://www.w3.org/2000/svg" viewBox="0 0 222.62 224.19">
  <defs>
    <style>
      .cls-1 {
        fill: #f3f8fa;
      }

      .cls-2 {
        fill: #06a1fb;
      }

      .cls-3 {
        fill: #f1f6f9;
      }

      .cls-4 {
        fill: #0b0a0a;
      }

      .cls-5 {
        fill: #bbcdf3;
      }

      .cls-6 {
        fill: #01131d;
      }
    </style>
  </defs>
  <path class="cls-5" d="M148.34,186.84c-20.3,3.61-54.05,3.49-74.39-.02-1.96-.34-8.7-1.43-9.76-2.22-5.12-3.83,6.76-5.9,9.97-5.48,5.48.71,9.38,4.52,17.47,4,8.17-.53,9.11-5.09,11.51-6,2.29-.86,7.62,1.36,10-.99,3.23,3.15,12.01,5.05,16.29,3.79,1.41-.42,2.73-2.83,3.7-2.8.11,0,.77.92,1.58.92,7.69.05,15.35,1.24,22.76,3.08,2.86,4.38-5.85,5.13-9.13,5.72Z"/>
  <path class="cls-2" d="M165.1,114.19c.88-5.78-1.58-11.14-2.99-15.99-4.26-14.62-12.18-25.31-26.63-31.83-3.79-1.71-12-3.08-14.28-4.7-5.36-3.8-8.46-11.16-16.73-15.24-12.78-6.32-26.4-3.07-15.32,11.8-10.69-.13-5.89,10.05-7.44,13-.52.97-5.39,4.12-7.06,5.98-6.01,6.71-11.31,16.86-11.48,25.99-5.11-.12-4.24,1.24-6.99,2.99-6.59,4.2-8.94,7.21-6.54,16.03,1.95,7.16,9.32,6.63,12.29,9.19.81.7,2.59,7.64,3.7,9.79,1.07,2.08,5.54,6.99,5.54,7.45v23.98c0,.98,2.54,5.01,2.99,6.49,5.48.71,9.38,4.52,17.47,4,8.17-.53,9.11-5.09,11.51-6-2.05-6.04-5.79-6.34-1.4-13.06l7.27,1.21c-.09,3.59,1.54,8.32,4.13,10.86,3.23,3.15,12.01,5.05,16.29,3.79,1.41-.42,2.73-2.83,3.7-2.8,1.49-2.64-2.05-7.5-1.91-8.35.18-1.09,2.63-2.43,3.37-3.67,5.67-9.5,8.21-7.46,15.02-13.96,1.98-1.89,7.12-10.45,7.69-10.78,1.2-.66,4.17.02,6.07-.43,14.62-3.47,16.52-21.8,1.73-25.74ZM136.12,117.18c1.47,9.11-15.01,7.42-10.99-1,1.49.53,2.79,1.84,4.58,1.99,2.28.2,4.77-1.3,6.41-.99ZM111.67,109.23c-16.51-.9-17.98-24.83-3.8-27.78,21.79-4.53,23.07,28.84,3.8,27.78ZM133.67,104.15c-8.49-13.06,6.61-30.92,18.44-15.94,0,.01.02.02.02.03.5.6,1.65.85,2.23,2.18,6.34,14.78-11.26,28.22-20.69,13.73Z"/>
  <path class="cls-1" d="M107.87,81.45c-14.18,2.95-12.71,26.88,3.8,27.78,19.27,1.06,17.99-32.31-3.8-27.78ZM112.61,101.22c-7.36-5.94,1.4-20.51,9.24-12.73,6.38,6.33-.89,19.49-9.24,12.73Z"/>
  <path class="cls-3" d="M133.67,104.15c-8.49-13.06,6.61-30.92,18.44-15.94-2.51-1.98-8.01-.63-9.77,2.71-6.63,12.61,13.89,18.3,11.73,2.86-.08-.6-1.63-5.1-1.94-5.54.5.6,1.65.85,2.23,2.18,6.34,14.78-11.26,28.22-20.69,13.73Z"/>
  <path class="cls-6" d="M125.13,116.18c1.49.53,2.79,1.84,4.58,1.99,2.28.2,4.77-1.3,6.41-.99,1.47,9.11-15.01,7.42-10.99-1Z"/>
  <path class="cls-4" d="M121.85,88.49c6.37,6.33-.89,19.49-9.25,12.73-7.35-5.95,1.41-20.52,9.25-12.73Z"/>
  <path class="cls-4" d="M142.34,90.92c1.76-3.34,7.26-4.69,9.77-2.71,0,.01.02.02.02.03.31.44,1.86,4.94,1.94,5.54,2.16,15.44-18.36,9.75-11.73-2.86Z"/>
</svg>