<?xml version="1.0" encoding="UTF-8"?>
<svg id="_Слой_1" data-name="Слой 1" xmlns="http://www.w3.org/2000/svg" viewBox="0 0 222.62 224.19">
  <defs>
    <style>
      .cls-1 {
        fill: #f3f8fa;
      }

      .cls-2 {
        fill: #06a1fb;
      }

      .cls-3 {
        fill: #f1f6f9;
      }

      .cls-4 {
        fill: #0b0a0a;
      }

      .cls-5 {
        fill: #bbcdf3;
      }
    </style>
  </defs>
  <path class="cls-5" d="M121.99,177.12c1.71.75,2.84,2.62,5,3.5,5.41,2.22,19.12,2.41,22.99-2.5l8.95,3.06-.03,2.86c-19.58,5.55-42,6-62.43,5.12-7.55-.33-17.24-1.05-24.65-2.33-1.83-.32-15.14-2.36-10.2-5.77.8-.55,8.09-1.99,9.41-1.93,2.14.1,4.33,1.66,6.58,1.91,5.73.65,14.57-.2,18.41-4.91,8.05,3.21,17.86-2.59,25.98,1Z"/>
  <path class="cls-2" d="M166.96,113.18c-.38-5.53-1.43-10.68-3-15.99-4.49-15.26-17.12-28.66-31.99-34.45-3.7-1.44-9.47-1.9-12.36-3.63-6.99-4.17-9.66-12.75-21.91-17.05-11.01-3.86-20.16,2.43-11.69,12.69v1.47c-10.2.57-5.07,11.98-6.17,13.81-.19.33-2.03.87-2.83,1.63-6.85,6.61-11.91,12.75-15.03,21.99-.77,2.31-1.55,9.51-2.15,10.33-.48.64-4.6,1.41-6.15,2.35-8.82,5.34-10.1,16.96-1.67,23.35,2.72,2.06,8.23,3.03,8.8,3.71.55.67,1.39,5.21,2.36,7.12,2.18,4.25,6.24,8.45,5.81,13.01-.83,8.84-7.53,16.91,2.04,25.59,2.14.1,4.34,1.66,6.58,1.92,5.73.64,14.57-.2,18.41-4.91,1.27-1.57,3.14-7.81,4.48-9.01,2.98-2.66,13.01,1.13,17.34.18l4.16,9.82c1.71.76,2.84,2.62,5,3.51,5.4,2.21,19.11,2.41,22.98-2.51,4.8-6.09-2.24-13.45-2.05-20.53.1-3.61,5.19-6.52,7.46-9.52,1.42-1.88,4.88-9.02,5.57-9.43,2.81-1.65,8.06.58,12.43-4.55,6.21-7.26,1.73-21.57-6.42-20.9ZM123.95,117.7c-1.4-2.15-1.26-2.44,1.04-3.52,2.7,2.89,8.34-1.3,11.99,1.99-1.94,6.16-9.51,6.95-13.03,1.53ZM97.98,89.67c1.11-9.88,12.88-14.59,20.97-8.92,2.5,1.76,1.97,2.75,3.04,4.45.75,1.21,1.92,1.19,2.56,3.92,5.52,23.27-29.14,23.51-26.57.55ZM133.13,101.54c-9.21-15.05,12.03-32.76,20.84-12.34.39.91,1.67,1.27,1.97,3.54,1.9,13.93-15.85,20.16-22.81,8.8Z"/>
  <path class="cls-1" d="M121.99,85.21c-16.36-6.8-14.72,18.16-2.97,14.57,7-2.13,4.59-9.59,2.97-14.57.75,1.21,1.92,1.18,2.56,3.92,5.52,23.27-29.15,23.51-26.57.55,1.11-9.88,12.88-14.6,20.96-8.92,2.5,1.76,1.98,2.74,3.04,4.45Z"/>
  <path class="cls-3" d="M153.97,89.2c-.97-4.54-12.55-6.14-12.93,3.58-.46,11.89,16,10.84,12.93-3.58.39.91,1.67,1.27,1.98,3.54,1.89,13.94-15.86,20.16-22.81,8.8-9.21-15.05,12.03-32.76,20.84-12.34Z"/>
  <path class="cls-4" d="M136.98,116.18c-1.94,6.16-9.51,6.95-13.03,1.53-1.4-2.15-1.26-2.44,1.04-3.53,2.7,2.9,8.34-1.3,11.99,2Z"/>
  <path class="cls-4" d="M121.99,85.21c1.62,4.98,4.03,12.44-2.97,14.57-11.76,3.59-13.39-21.37,2.97-14.57Z"/>
  <path class="cls-4" d="M153.97,89.2c3.07,14.43-13.39,15.47-12.93,3.58.38-9.72,11.96-8.12,12.93-3.58Z"/>
</svg>