<?xml version="1.0" encoding="UTF-8"?>
<svg id="_Слой_1" data-name="Слой 1" xmlns="http://www.w3.org/2000/svg" viewBox="0 0 222.62 224.19">
  <defs>
    <style>
      .cls-1 {
        fill: #f3f8fa;
      }

      .cls-2 {
        fill: #a8d5f9;
      }

      .cls-3 {
        fill: #06a1fb;
      }

      .cls-4 {
        fill: #f1f6f9;
      }

      .cls-5 {
        fill: #b8cdf5;
      }

      .cls-6 {
        fill: #0b0a0a;
      }
    </style>
  </defs>
  <path class="cls-3" d="M180.34,149.77c.26-.43.11-8.44,0-9.99-1.34-18.95-14.39-35.36-31.62-42.81-3.57-1.55-10.35-2.72-12.74-4.25-1.87-1.2-3.61-5.34-5.58-7.4-5.54-5.8-22.66-18.28-29.57-9.55-4.31,5.43,2.84,10.02,1.56,11.06-9.31-2.34-6.94,8.47-8.11,9.88-.5.61-11.62,4.07-14.57,5.91-3.68,2.3-9.85,8.21-12.13,11.85-1.51,2.43-3.49,9.14-4.4,10.09-1.71,1.77-5.03,1.8-7.58,5.9-6.75,10.84,4.24,15.5,3.78,17.71-6.94,6.17-17.22,11.56-12.95,22.58,1.2.25,2.97,2.75,4.98,3.52,10.97,4.23,19.54-2.35,28.41-1.51,3.95.37,13.96,6.29,18.28,7.78,6.61,2.26,10.64,3.01,17.49.91,9.63-2.97,17.49-1.35,28-2.98,5.79-.9,19.51-6.57,22.25-6.62,2.27-.04,6.99,2.42,10.11,2.79,5.09.6,14.4.04,17.39-4.89,5.07-8.35-3.52-20.46-13-19.98ZM141.37,136.79c-3.89,14.68-25.08,9.41-25.07-4.5.02-15.5,20.77-18.74,25.07-3.5,1.02,3.64,1,4.22,0,8ZM170.35,139.78c-1.04.51-3.95,4.51-5,5-6.01,2.82-15.34-2.39-16.77-8.7-3.6-15.88,16.28-23.72,21.77-7.29,1.12,3.36.73,3.33,1,6-.58.92-.82,1.93-1,3-.1.62.07,1.35,0,1.99Z"/>
  <path class="cls-4" d="M141.37,136.79c-3.89,14.68-25.08,9.42-25.07-4.5.02-15.5,20.77-18.74,25.07-3.49-10.4-13.48-21.04,9.05-8.02,11.6,3.97.78,5.09-1.66,8.02-3.61Z"/>
  <path class="cls-1" d="M170.35,139.78c-1.04.51-3.95,4.51-5,5-6.01,2.82-15.34-2.39-16.77-8.7-3.6-15.88,16.28-23.72,21.77-7.29-9.92-12.94-17.53,8.67-7.02,11.59,4.04,1.13,4.83-1.11,7.02-2.59-.1.62.07,1.35,0,1.99Z"/>
  <path class="cls-6" d="M141.37,128.8c1.02,3.63,1,4.21,0,7.99-2.93,1.95-4.05,4.39-8.02,3.61-13.02-2.55-2.37-25.08,8.02-11.6Z"/>
  <path class="cls-6" d="M171.35,134.79c-.58.92-.82,1.93-1,3-2.19,1.48-2.98,3.72-7.02,2.59-10.51-2.92-2.9-24.53,7.02-11.59,1.12,3.36.73,3.33,1,6Z"/>
  <path class="cls-5" d="M207.86,176.77c-1.59,2.93-20.8,5.46-25.03,5.96-39.08,4.65-83.75,3.62-122.9,0-5.9-.55-21.51-2.32-26.21-4.76-7.71-4.02,9.53-7.87,12.71-7.22,1.2.25,2.97,2.75,4.98,3.52,10.97,4.23,19.54-2.35,28.41-1.51,3.95.37,13.96,6.29,18.28,7.78,6.61,2.26,10.64,3.01,17.49.91,9.63-2.97,17.49-1.35,28-2.98,5.79-.9,19.51-6.57,22.25-6.62,2.27-.04,6.99,2.42,10.11,2.79,5.09.6,14.4.04,17.39-4.89l13.98,4.51.54,2.51Z"/>
  <path class="cls-2" d="M77.41,85.84c.31,1.92-.79,2.67-2.5,2.99-7.22,1.32-18.02-.63-25.47-1-.07-1.49,3.53-1.73,4.61-1.87,7.99-1.04,15.39-.98,23.37-.11Z"/>
  <path class="cls-5" d="M50.42,116.8c-1.56,1.39-16.43.37-19.5.01-1.83-.22-1.61.29-1.48-2,5.85.05,12.66-2.06,18.48-1,1.71.31,2.81,1.07,2.5,2.99Z"/>
  <path class="cls-5" d="M40.43,153.79c1.75,1.9-2.78,2.78-3.57,2.88-4.3.53-8.25-.06-12.42-.9-.3-2.61.04-1.58,1.46-2.02,2.73-.84,12.82-1.81,14.53.04Z"/>
</svg>