<?xml version="1.0" encoding="UTF-8"?>
<svg id="_Слой_1" data-name="Слой 1" xmlns="http://www.w3.org/2000/svg" viewBox="0 0 598.41 595.28">
  <defs>
    <style>
      .cls-1 {
        fill: #e4eef4;
      }

      .cls-2 {
        fill: #0dbafc;
      }

      .cls-3 {
        fill: #f9fcfc;
      }

      .cls-4 {
        fill: #010304;
      }
    </style>
  </defs>
  <path class="cls-2" d="M216.7,504.07c-6.75-12.75-2.47-25.77,3.38-37.81-39.02-25.7-66.81-65.76-78.31-111.02-51.43-1.59-53.07-73.46-2.97-80.22,5.54-40.94,25.72-82.21,55.28-111.05,2.29-2.23,16.28-13.35,16.59-14.59.27-1.07-2.37-6.71-2.67-8.93-2.33-16.98,11.21-31.35,27.96-31.3-1.6-4.28-5.44-7.24-7.54-11.35-7.96-15.6-4.57-33.2,14.17-37.21,14.05-3.01,30.29,3.19,42.21,10.47,16.03,9.79,29.92,24.66,36.47,42.44,90.2.67,163.01,74.36,174.86,161.53,30.68,2.81,48.68,37.38,30.15,63.33-5.02,7.03-13.19,13.18-21.62,15.42-3.99,1.06-8.03,1.04-11.98,2.1-10.42,39.37-32.56,74.72-64.16,100.33-1.89,1.54-12.01,8.07-12.39,8.73-.83,1.41,3.91,10.53,4.68,13.21,2.44,8.45,2.78,18.84-1.85,26.67-9.8,16.59-35.35,15.44-52.26,14.1-10.68-.84-20.73-7.51-25.54-17.07-.57-1.13-2-7.27-2.67-7.46-13.29,1.58-26.64,1.89-39.92,0-2.95.38-2,4.47-2.61,5.97-8.54,20.91-34.89,19.86-53.75,18.55-10.13-.7-20.56-5.46-25.53-14.85ZM309.32,275.86c7.19-.15,11.12.98,17.8-2.58,12.26-6.53,14.76-22.72,5.89-33.34-8.35-10-22.39-7.88-34.06-7.8s-23.49-1.92-31.84,7.8c-11.15,12.97-3.69,34.39,13.66,35.95,8.41.76,19.88.15,28.56-.03ZM401.93,275.86c8.57-.2,14.1.91,21.13-5.17,12.32-10.66,8.67-30.77-6.32-36.68-7.43-2.93-17.84-1.92-25.92-1.86-9.52.06-19.84-1.63-27.77,4.46-12.9,9.91-12.01,29.84,2.81,37.16,7.06,3.49,27.33,2.29,36.07,2.09Z"/>
  <path class="cls-1" d="M341.18,501.84c4.81,9.56,14.86,16.23,25.54,17.07,16.91,1.33,42.46,2.48,52.26-14.1,11.39.58,59.56,7.58,21.62,15.33-28.46,5.81-61.82,6.07-90.93,6.87-48.94,1.35-106.43,1.87-154.7-6.02-5.64-.92-31.35-4.59-14.77-10.82,3.74-1.41,8.02-1.96,11.9-2.91l24.61-3.18c4.97,9.39,15.4,14.15,25.53,14.85,18.85,1.31,45.21,2.35,53.75-18.55,1.87,2.16,6.12,0,7.78,0h25.93c.26,0,1.24.7,2.19.77,3.1.22,6.26-.53,9.29.71Z"/>
  <path class="cls-3" d="M298.94,232.14c-1.47,15.86,2.99,29.98,10.37,43.72-8.68.18-20.15.79-28.56.03-17.35-1.56-24.81-22.98-13.66-35.95,8.35-9.72,20.32-7.72,31.84-7.8Z"/>
  <path class="cls-3" d="M390.82,232.14c-1.08,15.64,2.87,30.53,11.11,43.72-8.74.2-29.01,1.4-36.07-2.09-14.82-7.32-15.71-27.26-2.81-37.16,7.93-6.09,18.25-4.4,27.77-4.46Z"/>
  <path class="cls-4" d="M401.93,275.86c-8.24-13.19-12.2-28.08-11.11-43.72,8.08-.06,18.49-1.07,25.92,1.86,14.99,5.91,18.65,26.02,6.32,36.68-7.04,6.08-12.56,4.98-21.13,5.17Z"/>
  <path class="cls-4" d="M309.32,275.86c-7.38-13.73-11.84-27.86-10.37-43.72,11.67-.08,25.72-2.2,34.06,7.8,8.86,10.62,6.36,26.81-5.89,33.34-6.68,3.56-10.61,2.43-17.8,2.58Z"/>
  <path class="cls-3" d="M295.98,500.36c.61-1.5-.35-5.59,2.61-5.97,13.28,1.88,26.63,1.58,39.92,0,.67.19,2.1,6.33,2.67,7.46-3.03-1.24-6.19-.5-9.29-.71-.96-.07-1.94-.77-2.19-.77h-25.93c-1.66,0-5.91,2.16-7.78,0Z"/>
</svg>