<?xml version="1.0" encoding="UTF-8"?>
<svg id="_Слой_1" data-name="Слой 1" xmlns="http://www.w3.org/2000/svg" viewBox="0 0 598.41 595.28">
  <defs>
    <style>
      .cls-1 {
        fill: #e4eef4;
      }

      .cls-2 {
        fill: #0dbafc;
      }

      .cls-3 {
        fill: #f9fcfc;
      }

      .cls-4 {
        fill: #010304;
      }
    </style>
  </defs>
  <path class="cls-2" d="M205.31,500.21c-.73-1.3-2.25-6.42-2.62-8.1-2.86-13.07,1.94-22.77,7.79-34.03-37.96-24.1-65.05-64.42-76.23-107.89-10.48.57-20.59-1.86-28.77-8.57-30.12-24.69-12.32-70.58,25.14-72.1,6.5-51.38,35.38-99.3,77.58-129.13-.48-2.88-2.01-5.38-2.68-8.24-4.47-19.2,12.57-35.74,31.57-33.43-1.91-4.26-4.91-7.73-6.78-12.07-9.29-21.62,2.17-38.32,25.67-36.76,29.05,1.93,58.41,31.96,67.35,58.51,85.52,5.9,156.08,76.82,165.88,161.12,56.63,2.72,53.82,82.41-3,80.91-11.75,42.24-36.9,81.99-73.86,106.21,6.73,13.89,13.74,28.54,5.14,43.56-3.28,5.72-11.75,12.11-18.29,13.13-7.21,1.12-29.29,1-36.8.18-8.77-.95-18.91-9.13-22.55-17.01-1.27-2.77-1.6-6.03-2.6-8.89l-23.62,2.26-28.07-1.55c-.46.08-2.09,7.69-2.65,8.91-3.38,7.45-13.57,15.38-21.81,16.27-7.58.82-30.15.92-37.38-.33-5.77-1-15.6-7.91-18.44-12.98ZM274.82,271.74c7.24-.16,10.82.93,17.5-2.83,16.07-9.06,13.58-33.33-3.68-39.45-6.62-2.35-17.6-1.4-24.91-1.34-10.54.09-22.73-1.78-30.71,6.63-10.46,11.01-7.28,29.41,6.85,35.35,7,2.95,26.45,1.84,34.96,1.64ZM373.16,271.74c8.56-.19,14.13,1.01,21.09-5.16,14.46-12.82,6.36-36.58-12.59-38.46-5.65-.56-12.99-.04-18.85,0-14.32.08-34.35-1.12-36.91,18.18-3.91,29.49,28.01,25.87,47.26,25.45Z"/>
  <path class="cls-1" d="M339.88,496.51c3.63,7.88,13.78,16.06,22.55,17.01,7.5.81,29.58.94,36.8-.18,6.54-1.02,15.02-7.41,18.29-13.13,10.41,1.1,22.91,1.65,32.74,5.34,7.66,2.88,7.74,5.08-.05,7.75-25.68,8.83-75.2,8.34-103.33,9.05-49.08,1.25-102.82,1.7-151.44-5.25-8.03-1.15-41.82-6.1-16.01-12.84,8.43-2.2,17.31-2.76,25.89-4.06,2.84,5.07,12.68,11.98,18.44,12.98,7.24,1.25,29.8,1.16,37.38.33,8.24-.9,18.42-8.82,21.81-16.27,1.99-.18,6.15-1.48,7.76-1.48h40.67c.24,0,1.24.69,2.19.77,2.09.17,4.23-.16,6.31-.03Z"/>
  <path class="cls-3" d="M362.8,228.12c-1.44,15.85,2.68,30,10.35,43.62-19.25.42-51.17,4.05-47.26-25.45,2.56-19.3,22.59-18.1,36.91-18.18Z"/>
  <path class="cls-3" d="M263.73,228.12c-1.03,15.48,2.8,30.6,11.09,43.62-8.51.19-27.95,1.3-34.96-1.64-14.13-5.95-17.31-24.34-6.85-35.35,7.98-8.4,20.17-6.54,30.71-6.63Z"/>
  <path class="cls-4" d="M274.82,271.74c-8.29-13.03-12.13-28.15-11.09-43.62,7.31-.06,18.29-1.01,24.91,1.34,17.26,6.12,19.75,30.39,3.68,39.45-6.68,3.76-10.26,2.67-17.5,2.83Z"/>
  <path class="cls-4" d="M362.8,228.12c5.86-.03,13.2-.55,18.85,0,18.95,1.88,27.05,25.63,12.59,38.46-6.95,6.17-12.53,4.97-21.09,5.16-7.67-13.62-11.79-27.78-10.35-43.62Z"/>
  <path class="cls-3" d="M282.95,497.25c.55-1.22,2.19-8.84,2.65-8.91l28.07,1.55,23.62-2.26c1,2.86,1.33,6.12,2.6,8.89-2.09-.13-4.23.2-6.31.03-.95-.08-1.94-.77-2.19-.77h-40.67c-1.61,0-5.77,1.3-7.76,1.48Z"/>
</svg>