<?xml version="1.0" encoding="UTF-8"?>
<svg id="_Слой_1" xmlns="http://www.w3.org/2000/svg" version="1.1" viewBox="0 0 598.4 595.3">
  <!-- Generator: Adobe Illustrator 29.6.1, SVG Export Plug-In . SVG Version: 2.1.1 Build 9)  -->
  <defs>
    <style>
      .st0 {
        fill: #0dbafc;
      }

      .st1 {
        fill: #f9fcfc;
      }

      .st2 {
        fill: #010304;
      }
    </style>
  </defs>
  <path class="st0" d="M205.3,500.2c-.7-1.3-2.2-6.4-2.6-8.1-2.9-13.1,1.9-22.8,7.8-34-38-24.1-65.1-64.4-76.2-107.9-10.5.6-20.6-1.9-28.8-8.6-30.1-24.7-12.3-70.6,25.1-72.1,6.5-51.4,35.4-99.3,77.6-129.1-.5-2.9-2-5.4-2.7-8.2-4.5-19.2,12.6-35.7,31.6-33.4-1.9-4.3-4.9-7.7-6.8-12.1-9.3-21.6,2.2-38.3,25.7-36.8,29.1,1.9,58.4,32,67.3,58.5,85.5,5.9,156.1,76.8,165.9,161.1,56.6,2.7,53.8,82.4-3,80.9-11.8,42.2-36.9,82-73.9,106.2,6.7,13.9,13.7,28.5,5.1,43.6-3.3,5.7-11.8,12.1-18.3,13.1-7.2,1.1-29.3,1-36.8.2-8.8-1-18.9-9.1-22.5-17-1.3-2.8-1.6-6-2.6-8.9l-23.6,2.3-28.1-1.5c-.5,0-2.1,7.7-2.6,8.9-3.4,7.5-13.6,15.4-21.8,16.3-7.6.8-30.1.9-37.4-.3-5.8-1-15.6-7.9-18.4-13h0ZM274.8,271.7c7.2-.2,10.8.9,17.5-2.8,16.1-9.1,13.6-33.3-3.7-39.4-6.6-2.4-17.6-1.4-24.9-1.3-10.5,0-22.7-1.8-30.7,6.6-10.5,11-7.3,29.4,6.9,35.3,7,3,26.5,1.8,35,1.6h0ZM373.2,271.7c8.6-.2,14.1,1,21.1-5.2,14.5-12.8,6.4-36.6-12.6-38.5-5.6-.6-13,0-18.9,0-14.3,0-34.4-1.1-36.9,18.2-3.9,29.5,28,25.9,47.3,25.5h0Z"/>
  <path class="st1" d="M362.8,228.1c-1.4,15.9,2.7,30,10.4,43.6-19.2.4-51.2,4-47.3-25.4,2.6-19.3,22.6-18.1,36.9-18.2h0Z"/>
  <path class="st1" d="M263.7,228.1c-1,15.5,2.8,30.6,11.1,43.6-8.5.2-27.9,1.3-35-1.6-14.1-6-17.3-24.3-6.9-35.4,8-8.4,20.2-6.5,30.7-6.6h0Z"/>
  <path class="st2" d="M274.8,271.7c-8.3-13-12.1-28.1-11.1-43.6,7.3,0,18.3-1,24.9,1.3,17.3,6.1,19.8,30.4,3.7,39.5-6.7,3.8-10.3,2.7-17.5,2.8Z"/>
  <path class="st2" d="M362.8,228.1c5.9,0,13.2-.6,18.9,0,19,1.9,27,25.6,12.6,38.5-7,6.2-12.5,5-21.1,5.2-7.7-13.6-11.8-27.8-10.4-43.6h0Z"/>
</svg>