<?xml version="1.0" encoding="UTF-8"?>
<svg id="_Слой_1" xmlns="http://www.w3.org/2000/svg" version="1.1" viewBox="0 0 598.4 595.3">
  <!-- Generator: Adobe Illustrator 29.6.1, SVG Export Plug-In . SVG Version: 2.1.1 Build 9)  -->
  <defs>
    <style>
      .st0 {
        fill: #03bafd;
      }

      .st1 {
        fill: #f9fbfc;
      }

      .st2 {
        fill: #020405;
      }
    </style>
  </defs>
  <path class="st0" d="M168.8,458.8c-5.7-9.9-2.8-21.8,2.3-31.2,1.4-2.5,8-10.4,8.2-11.1.7-2.7-2.7-4.3-4.1-6.2-7.6-10.2-16.5-21.3-20.3-33.5-57.7,16.7-73.7-63.1-14.9-70.2.5-38.3,19.2-76.6,46.3-103.2,1.9-1.8,11.8-9.1,12.2-10.3.7-2.2-3.2-9.5-3.2-13.6,0-13.1,12.9-24.3,25.6-23.9-19.7-24.6-10.6-48.5,23.4-39.9,17.8,4.5,35.9,18.9,45.6,34.2,1.1,1.8,4.2,9.3,4.7,9.7,3.1,2.3,16,.9,20.5,1.3,48.3,4.4,92,29.3,118.4,69.9,14.6,22.5,22.1,48.3,25.2,74.8,57.9,10.6,42.6,86.7-15.3,71.4-8.7,19.8-22.5,37.1-38.4,51.5-1.9,1.7-8.4,5.5-9.1,6.9-2.2,4.6-1,14.6-4.8,21.3-8.3,14.5-28.4,14.7-42.8,12.5-6-.9-15.7-4.9-20.5-5.1-12.6-.4-27.2,3.1-41.5,2.2-9.5-.6-25.4-5.7-32.9-5.4s-24.8,7.2-35.3,8.4c-13.6,1.6-41.4,3.3-49.4-10.5h0ZM328.5,304.5c1.2-.5,2.7-.1,4.6-1.2,8.8-5,15-15.1,14.5-25.3-11.7-3-23.5-6.2-35.1-9.6-5.6-1.6-21.8-9.3-26.6-6.9-2.6,1.3-6,11-6.3,14-1.5,16,12.5,30.8,28.1,32.3,9.3.9,12.7,0,20.8-3.2h0ZM397.6,271.5c-9.4,3.1-18.9,6.4-28.7,8.6,2.2,25.1,29.8,35.6,50,21.2,7.1-5.1,11.3-10.5,12.5-20,.5-4.4-1.1-19.9-7.4-19.2-5.5.6-19.8,7.2-26.4,9.4h0ZM357,325c-4.9.7-16.8,6.2-16.9,12-.1,8.8,7.7.5,10-.7,7.7-4.1,13.2-5.7,21.7-2.1,4.1,1.7,7.8,7.8,11,6.1,6.8-3.5-3.5-11.3-7.2-13.1-5.7-2.7-12.4-3-18.6-2.1h0Z"/>
  <path class="st1" d="M312.5,268.4c-3.7,14.4,3.8,28.6,16,36.2-8,3.2-11.4,4.1-20.8,3.2-15.6-1.6-29.6-16.3-28.1-32.3.3-3,3.6-12.7,6.3-14,4.8-2.4,21,5.3,26.6,6.9h0Z"/>
  <path class="st1" d="M397.6,271.5c1.2,13.3,8.7,24.9,21.3,29.8-20.2,14.5-47.7,4-50-21.2,9.7-2.2,19.2-5.5,28.7-8.6h0Z"/>
  <path class="st2" d="M418.9,301.3c-12.6-4.9-20.1-16.5-21.3-29.8,6.6-2.2,20.8-8.8,26.4-9.4,6.3-.7,8,14.9,7.4,19.2-1.2,9.5-5.4,14.8-12.5,20h0Z"/>
  <path class="st2" d="M312.5,268.4c11.6,3.4,23.4,6.6,35.1,9.6.5,10.2-5.7,20.4-14.5,25.3-1.9,1.1-3.4.8-4.6,1.2-12.2-7.6-19.7-21.7-16-36.2h0Z"/>
  <path class="st2" d="M357,325c6.2-.9,12.9-.5,18.6,2.1,3.7,1.8,14,9.5,7.2,13.1-3.2,1.6-6.9-4.4-11-6.1-8.5-3.5-14-2-21.7,2.1-2.3,1.2-10.1,9.5-10,.7,0-5.7,11.9-11.2,16.9-12h0Z"/>
</svg>