<?xml version="1.0" encoding="UTF-8"?>
<svg id="_Слой_1" data-name="Слой 1" xmlns="http://www.w3.org/2000/svg" viewBox="0 0 598.41 595.28">
  <defs>
    <style>
      .cls-1 {
        fill: #e3eef5;
      }

      .cls-2 {
        fill: #03bafd;
      }

      .cls-3 {
        fill: #f9fbfc;
      }

      .cls-4 {
        fill: #020405;
      }
    </style>
  </defs>
  <path class="cls-2" d="M168.79,458.83c-5.69-9.94-2.84-21.77,2.34-31.18,1.35-2.46,8.01-10.37,8.2-11.06.73-2.74-2.71-4.32-4.12-6.2-7.63-10.22-16.47-21.34-20.27-33.49-57.74,16.69-73.69-63.08-14.89-70.24.51-38.33,19.21-76.64,46.28-103.24,1.87-1.84,11.77-9.08,12.16-10.26.74-2.25-3.17-9.49-3.16-13.65,0-13.13,12.91-24.34,25.62-23.95-19.74-24.63-10.6-48.47,23.41-39.88,17.82,4.5,35.86,18.85,45.57,34.25,1.12,1.77,4.21,9.29,4.71,9.66,3.15,2.26,16.02.85,20.55,1.26,48.26,4.44,91.97,29.28,118.44,69.94,14.65,22.51,22.11,48.25,25.19,74.84,57.95,10.6,42.6,86.74-15.28,71.39-8.74,19.76-22.49,37.08-38.44,51.5-1.86,1.68-8.42,5.53-9.07,6.89-2.21,4.59-.97,14.61-4.78,21.3-8.26,14.5-28.35,14.68-42.82,12.48-6.03-.92-15.66-4.94-20.55-5.09-12.6-.37-27.24,3.09-41.52,2.23-9.51-.57-25.36-5.67-32.92-5.41s-24.76,7.18-35.29,8.43c-13.58,1.6-41.45,3.32-49.36-10.51ZM328.46,304.54c1.18-.47,2.66-.13,4.6-1.22,8.81-4.97,14.97-15.15,14.52-25.34-11.7-3-23.5-6.2-35.08-9.62-5.59-1.65-21.82-9.28-26.62-6.92-2.63,1.29-5.99,10.97-6.27,13.97-1.52,16.05,12.53,30.75,28.11,32.32,9.34.94,12.73.05,20.75-3.18ZM397.65,271.55c-9.42,3.14-18.93,6.43-28.66,8.59,2.2,25.15,29.76,35.65,49.95,21.21,7.15-5.12,11.34-10.51,12.5-19.96.54-4.39-1.15-19.94-7.43-19.25-5.54.61-19.8,7.23-26.36,9.42ZM356.95,325.03c-4.94.72-16.81,6.24-16.88,11.95-.11,8.76,7.69.5,10.01-.73,7.71-4.12,13.16-5.68,21.71-2.13,4.06,1.69,7.79,7.76,10.97,6.11,6.79-3.52-3.48-11.31-7.21-13.06-5.73-2.69-12.36-3.05-18.6-2.14Z"/>
  <path class="cls-1" d="M168.79,458.83c7.92,13.82,35.78,12.11,49.36,10.51,10.53-1.24,27.75-8.17,35.29-8.43s23.41,4.84,32.92,5.41c14.29.86,28.92-2.6,41.52-2.23,4.89.14,14.51,4.17,20.55,5.09,14.47,2.2,34.56,2.02,42.82-12.48,8.88,1.29,18.02,1.67,26.83,3.51,6.67,1.39,25.28,5.49,9.65,11.15-23.14,8.39-66,7.93-91.29,8.76-51.5,1.71-108.46,2.83-159.53-4.42-4.21-.6-27.46-4.13-28.36-7.84,3.34-7.3,14.27-5.31,20.22-9.03Z"/>
  <path class="cls-3" d="M312.49,268.36c-3.73,14.44,3.79,28.57,15.97,36.18-8.02,3.23-11.4,4.12-20.75,3.18-15.58-1.57-29.63-16.27-28.11-32.32.29-3,3.64-12.68,6.27-13.97,4.8-2.35,21.02,5.27,26.62,6.92Z"/>
  <path class="cls-3" d="M397.65,271.55c1.17,13.34,8.71,24.88,21.29,29.79-20.19,14.45-47.74,3.95-49.95-21.21,9.73-2.16,19.23-5.45,28.66-8.59Z"/>
  <path class="cls-4" d="M418.94,301.34c-12.58-4.92-20.12-16.46-21.29-29.79,6.56-2.19,20.82-8.81,26.36-9.42,6.27-.69,7.96,14.87,7.43,19.25-1.16,9.45-5.35,14.84-12.5,19.96Z"/>
  <path class="cls-4" d="M312.49,268.36c11.58,3.42,23.38,6.62,35.08,9.62.45,10.19-5.71,20.37-14.52,25.34-1.93,1.09-3.42.75-4.6,1.22-12.18-7.61-19.7-21.73-15.97-36.18Z"/>
  <path class="cls-4" d="M356.95,325.03c6.24-.91,12.87-.55,18.6,2.14,3.73,1.75,14,9.54,7.21,13.06-3.18,1.65-6.9-4.42-10.97-6.11-8.55-3.55-14-1.99-21.71,2.13-2.32,1.24-10.12,9.49-10.01.73.07-5.72,11.94-11.23,16.88-11.95Z"/>
</svg>