<?xml version="1.0" encoding="UTF-8"?>
<svg id="_Слой_1" xmlns="http://www.w3.org/2000/svg" version="1.1" viewBox="0 0 598.41 595.28">
  <!-- Generator: Adobe Illustrator 29.6.1, SVG Export Plug-In . SVG Version: 2.1.1 Build 9)  -->
  <defs>
    <style>
      .st0 {
        fill: #cdecfa;
      }

      .st1 {
        fill: #03bafd;
      }

      .st2 {
        fill: #f9fbfc;
      }

      .st3 {
        fill: #020405;
      }
    </style>
  </defs>
  <path class="st1" d="M474.26,179.39c1.24.84,11.19-7.25,14.37-8.77,35.11-16.89,69.7,9.28,62.69,47.71-4.26,23.33-34.35,43.35-54.41,52.49-.8,50.34-23.07,95.97-51.35,136.25-37.95,54.07-101.61,115.29-160.2,146.26-19.53,10.32-70.62,33.88-84.07,5.81-8.02-16.73,7.29-33.46,3.09-41.95-6.1-12.31-37.02,14.03-44.61,18.2-49.51,27.24-77.09,7.12-67.9-48.45,7.25-43.91,36.53-81.42,33.99-127.41-.42-7.55-4-33.66-6.22-40.12-.41-1.18-1.01-1.9-2.22-2.27-23.59-6.18-54.07-15.45-66.04-38.61-12.74-24.64-1.28-56.53,25.49-65.17,19.42-6.28,32.98.27,50.49,7.89,4.31-19.01,14.59-38.35,25.71-54.29,3.36-4.82,21.5-24.38,21.95-26.02.84-3.04-5.62-13.43-5.87-20.58-.5-14.4,10.55-30.08,25.5-30.66-2.04-7.18-8.82-12-11.79-18.84-6.49-14.91-1.44-31.65,15.89-34.6,33.6-5.7,71.13,19.63,88.12,47.28,75.51-10.36,153.76,27.1,187.4,95.83l-.02.02ZM356.11,134.57c-12.66,15.86-10.32,33.2,4.49,46.34,33.63,29.8,77.51-11.81,52.33-45.59-14.03-18.82-42.25-18.99-56.82-.75h0ZM258.93,161.47c-3.07,15.89-1.5,25.93,11.97,35.88,41.37,30.54,86.04-25.2,48.33-55.05-21.25-16.83-54.99-8.29-60.3,19.17Z"/>
  <path class="st0" d="M329.2,565.03c-.37-3.29,4.35-5.32,6.78-7.41,16.81-14.5,34.9-27.84,50.81-43.36,15-14.62,27.9-31.45,42.56-46.38-7.37,21.97-25.71,43.94-42.56,59.82-15.99,15.08-36.46,30.99-57.59,37.32h0Z"/>
  <path class="st0" d="M366.59,568.01l50.81-49.31c-6.68,22.2-29.11,41.76-50.81,49.31h0Z"/>
  <path class="st2" d="M270.88,197.34c46.64-.58,26.37-72.89-11.97-35.88,5.31-27.47,39.04-36.01,60.3-19.17,37.69,29.85-6.98,85.59-48.33,55.05h0Z"/>
  <path class="st2" d="M360.6,180.89c36.5.13,31.93-55.37-4.49-46.34,14.57-18.24,42.79-18.06,56.82.75,25.17,33.77-18.7,75.39-52.33,45.59Z"/>
  <path class="st3" d="M270.88,197.34c-13.47-9.95-15.03-19.98-11.97-35.88,38.32-37.02,58.61,35.29,11.97,35.88Z"/>
  <path class="st3" d="M360.6,180.89c-14.81-13.12-17.15-30.48-4.49-46.34,36.41-9.04,40.98,46.46,4.49,46.34Z"/>
</svg>