<?xml version="1.0" encoding="UTF-8"?>
<svg id="_Слой_1" data-name="Слой 1" xmlns="http://www.w3.org/2000/svg" viewBox="0 0 598.41 595.28">
  <defs>
    <style>
      .cls-1 {
        fill: #e3eef5;
      }

      .cls-2 {
        fill: #03bafd;
      }

      .cls-3 {
        fill: #020405;
      }
    </style>
  </defs>
  <path class="cls-2" d="M76.45,446.82c-5.57-2.99-9.83-7.66-12.23-13.58-11.4-28.08,18.04-52.91,42.19-59.69-16.7-64.15,13.49-130.14,66.22-167.23,3.35-2.36,20.31-11.67,20.97-12.71,1.02-1.6-7.04-13.75-7.61-18.97-3.18-28.77,39.01-26.33,57.06-20.97,11.04,3.28,27.42,15.49,33.56,16.86,6.5,1.45,16.58-.27,23.75.26,74.58,5.61,142.43,44.58,174.68,113.46,12.12-1.18,22.42-1.06,33.25,5.11,26.78,15.27,24.85,52.83-1.2,67.67-5.44,3.09-11.22,3.62-15.86,6.95-1.05,9.89-2.45,19.76-5.47,29.25,17.9,10,27.81,29.43,21.71,49.98-7.93,26.71-45.82,36.07-67.12,18.49-2.48-2.05-6-7.66-7.85-7.71-14.27,6.19-29.54,10.07-44.86,12.84-60.73,10.98-137.92,9.58-197.36-7.17-4.48-1.26-10.64-4.94-14.83-5.58-13.09-2-32.68.48-46.8-.02-13.66-.49-40.66-1.07-52.17-7.25ZM412.77,331.77c-5.84,3.7,6.03,15.9,9.41,18.46,10,7.58,24.08,9.08,35.02,2.55,4.61-2.76,18.96-17.41,11.85-21.82-5.51-3.42-7.64,4.98-10.18,7.88-8.71,9.96-25.48,10.66-34.75,1.04-2.48-2.57-5.65-11.74-11.35-8.12ZM385.83,331.76c-2.81.81-3.14,5.01-4.99,7.1-8.76,9.89-22.14,13.12-33.92,6.2-6.13-3.61-10.59-14.87-17.15-11.65-7.51,3.68,6.47,16.98,10.4,19.6,14.41,9.61,36.39,7.64,47.22-6.4,3.6-4.67,8.41-17.71-1.56-14.84Z"/>
  <path class="cls-1" d="M76.45,446.82c11.51,6.18,38.51,6.76,52.17,7.25,14.11.5,33.71-1.98,46.8.02,4.19.64,10.35,4.32,14.83,5.58,59.44,16.75,136.63,18.15,197.36,7.17,15.32-2.77,30.59-6.65,44.86-12.84,1.85.04,5.37,5.66,7.85,7.71,21.3,17.58,59.19,8.22,67.12-18.49,6.75-.91,36.08,6.01,39.05,10.77,4.27,6.85-12.79,10.49-17.18,11.69-42.58,11.59-101.57,12.07-146.17,13.49-89.96,2.87-203.25,5.23-291.3-11.13-15.35-2.85-49.16-8.76-15.38-21.22Z"/>
  <path class="cls-2" d="M536.26,111.98h25.81c3.8,0,3.8,10.8,0,10.8h-40.82c-2.45,0-5.61-8.32-2.3-10.7l26.91-31.31h-25.81c-2.41,0-5.38-9.29,2.43-10.77,4.45-.84,32.69-.84,37.16,0,2.94.55,5.61,3.51,5.45,6.46-.32,5.95-25.64,27.75-28.83,35.51Z"/>
  <path class="cls-2" d="M506.84,133.58c3.16.53,4.57,3.92,3.34,6.84-3.07,7.26-16.25,17.13-20.74,24.37h20.41c.52,0,3.13,7.19-3.04,8.37-3.57.68-23.98.7-27.58.04-3.06-.56-4.89-4.19-3.62-7.13,2.87-6.62,16.94-17.01,21.03-24.07h-18.61c-3.83,0-2.55-8.4,0-8.4,8.09,0,21.57-1.21,28.81,0Z"/>
  <path class="cls-2" d="M474.43,186.39c.55.16,2.67,2.48,2.87,3.25,1.02,3.88-15.46,18.62-17.88,23.15,3.83.77,16.54-1.87,17.84,1.99.37,1.11.55,4.18,0,5.07-2.23,3.62-23.32-.96-28.05.15-3.34-.3-3.77-3.35-2.4-5.99l17.4-20.41h-16.81c-.55,0-.99-5.99,0-7.2,7.09,1.28,20.89-1.74,27.01,0Z"/>
  <path class="cls-3" d="M385.83,331.76c9.97-2.87,5.16,10.17,1.56,14.84-10.83,14.04-32.81,16.01-47.22,6.4-3.93-2.62-17.91-15.92-10.4-19.6,6.56-3.22,11.02,8.05,17.15,11.65,11.78,6.92,25.15,3.69,33.92-6.2,1.85-2.09,2.18-6.29,4.99-7.1Z"/>
  <path class="cls-3" d="M412.77,331.77c5.71-3.62,8.88,5.55,11.35,8.12,9.27,9.62,26.04,8.91,34.75-1.04,2.54-2.91,4.67-11.3,10.18-7.88,7.11,4.41-7.24,19.06-11.85,21.82-10.94,6.54-25.02,5.03-35.02-2.55-3.39-2.57-15.25-14.76-9.41-18.46Z"/>
</svg>