<?xml version="1.0" encoding="UTF-8"?>
<svg id="_Слой_1" xmlns="http://www.w3.org/2000/svg" version="1.1" viewBox="0 0 598.4 595.3">
  <!-- Generator: Adobe Illustrator 29.6.1, SVG Export Plug-In . SVG Version: 2.1.1 Build 9)  -->
  <defs>
    <style>
      .st0 {
        fill: #03bafd;
      }

      .st1 {
        fill: #020405;
      }
    </style>
  </defs>
  <path class="st0" d="M76.4,446.8c-5.6-3-9.8-7.7-12.2-13.6-11.4-28.1,18-52.9,42.2-59.7-16.7-64.1,13.5-130.1,66.2-167.2,3.4-2.4,20.3-11.7,21-12.7,1-1.6-7-13.8-7.6-19-3.2-28.8,39-26.3,57.1-21,11,3.3,27.4,15.5,33.6,16.9,6.5,1.4,16.6-.3,23.8.3,74.6,5.6,142.4,44.6,174.7,113.5,12.1-1.2,22.4-1.1,33.2,5.1,26.8,15.3,24.9,52.8-1.2,67.7-5.4,3.1-11.2,3.6-15.9,7-1,9.9-2.5,19.8-5.5,29.2,17.9,10,27.8,29.4,21.7,50-7.9,26.7-45.8,36.1-67.1,18.5-2.5-2-6-7.7-7.9-7.7-14.3,6.2-29.5,10.1-44.9,12.8-60.7,11-137.9,9.6-197.4-7.2-4.5-1.3-10.6-4.9-14.8-5.6-13.1-2-32.7.5-46.8,0-13.7-.5-40.7-1.1-52.2-7.2h0ZM412.8,331.8c-5.8,3.7,6,15.9,9.4,18.5,10,7.6,24.1,9.1,35,2.5,4.6-2.8,19-17.4,11.9-21.8-5.5-3.4-7.6,5-10.2,7.9-8.7,10-25.5,10.7-34.8,1-2.5-2.6-5.6-11.7-11.4-8.1h0ZM385.8,331.8c-2.8.8-3.1,5-5,7.1-8.8,9.9-22.1,13.1-33.9,6.2-6.1-3.6-10.6-14.9-17.1-11.6-7.5,3.7,6.5,17,10.4,19.6,14.4,9.6,36.4,7.6,47.2-6.4,3.6-4.7,8.4-17.7-1.6-14.8h0Z"/>
  <path class="st0" d="M536.3,112h25.8c3.8,0,3.8,10.8,0,10.8h-40.8c-2.5,0-5.6-8.3-2.3-10.7l26.9-31.3h-25.8c-2.4,0-5.4-9.3,2.4-10.8,4.5-.8,32.7-.8,37.2,0,2.9.6,5.6,3.5,5.5,6.5-.3,5.9-25.6,27.8-28.8,35.5h0Z"/>
  <path class="st0" d="M506.8,133.6c3.2.5,4.6,3.9,3.3,6.8-3.1,7.3-16.2,17.1-20.7,24.4h20.4c.5,0,3.1,7.2-3,8.4-3.6.7-24,.7-27.6,0-3.1-.6-4.9-4.2-3.6-7.1,2.9-6.6,16.9-17,21-24.1h-18.6c-3.8,0-2.5-8.4,0-8.4,8.1,0,21.6-1.2,28.8,0h0Z"/>
  <path class="st0" d="M474.4,186.4c.5.2,2.7,2.5,2.9,3.2,1,3.9-15.5,18.6-17.9,23.1,3.8.8,16.5-1.9,17.8,2,.4,1.1.5,4.2,0,5.1-2.2,3.6-23.3-1-28,.1-3.3-.3-3.8-3.4-2.4-6l17.4-20.4h-16.8c-.5,0-1-6,0-7.2,7.1,1.3,20.9-1.7,27,0h0Z"/>
  <path class="st1" d="M385.8,331.8c10-2.9,5.2,10.2,1.6,14.8-10.8,14-32.8,16-47.2,6.4-3.9-2.6-17.9-15.9-10.4-19.6,6.6-3.2,11,8,17.1,11.6,11.8,6.9,25.1,3.7,33.9-6.2,1.9-2.1,2.2-6.3,5-7.1h0Z"/>
  <path class="st1" d="M412.8,331.8c5.7-3.6,8.9,5.5,11.4,8.1,9.3,9.6,26,8.9,34.8-1,2.5-2.9,4.7-11.3,10.2-7.9,7.1,4.4-7.2,19.1-11.9,21.8-10.9,6.5-25,5-35-2.5-3.4-2.6-15.2-14.8-9.4-18.5h0Z"/>
</svg>