<?xml version="1.0" encoding="UTF-8"?>
<svg id="_Слой_1" xmlns="http://www.w3.org/2000/svg" version="1.1" viewBox="0 0 598.4 595.3">
  <!-- Generator: Adobe Illustrator 29.6.1, SVG Export Plug-In . SVG Version: 2.1.1 Build 9)  -->
  <defs>
    <style>
      .st0 {
        fill: #03bafd;
      }

      .st1 {
        fill: #f9fbfc;
      }

      .st2 {
        fill: #020405;
      }
    </style>
  </defs>
  <path class="st0" d="M264.8,467c-49.8-15-91.1-55.1-105.1-105.6-5.3-1.5-10.6-1-16-3-17.6-6.5-26.1-27.4-18.3-44.5,5.6-12.2,17.5-18.1,30.1-20.5,7.1-37.3,26.7-73.3,57.8-95.6.7-1-2.9-5.6-3.5-7.2-6.5-17,5.8-32.6,23.6-31.7-17.1-25.4-5.4-48.4,26.3-36.3,14.2,5.4,30.1,19.4,38.2,32.2,1.5,2.3,4.6,10.9,6.5,11.6,18.3-.2,36.7,1.6,54.3,6.6,52.6,14.9,94,61.6,104,115.2,31.6,2.9,43,45.9,14.1,61.4-2.8,1.5-13.9,4.3-14.3,4.9-.9,1.3-3.7,13.5-4.9,16.7-16.7,45.1-54.2,82-100.6,95.8-22.8,6.8-47.2,8.2-70.7,4.6-6.1-.9-16.5-4.6-21.5-4.6h0ZM326.6,231.2c.7-10.3-5.5-16-13.3-20.9-31.2-19.6-55.4,15.8-40.4,44.6,17.4,33.3,65.6,11,53.7-23.7h0ZM400.8,229.3c-2-7.8-5.9-16.4-14.3-19-1.3-2.3-4.5-3.4-6.9-4.1-27.6-8.3-40.8,19.3-33.1,42.6,12.1,36.7,65.8,26.4,54.3-19.5h0ZM334.9,299.8c-11.5,2.1-11.1,36.8,1.6,36,10.8-.7,11.4-31.4,2.2-35.4-1.4-.6-2.3-.8-3.8-.6h0Z"/>
  <path class="st0" d="M433.7,129.7c5.7-.5,3.8,5.2,2.7,8.3-1.2,3.3-13.3,27.4-14.7,28.1-2.1,1-4.6.7-4.8-1.9-.1-1.7,11.4-29.1,13.2-31.6,1-1.3,1.9-2.8,3.7-2.9h0Z"/>
  <path class="st0" d="M440.1,178.3c1.4-1.7,22.6-17.6,24.7-18.6,5-2.2,8.1,2.3,5,6l-26.3,18.5c-3.8.7-6.2-2.6-3.5-5.9h0Z"/>
  <path class="st0" d="M451.7,210.3c-2.8-.8-2.7-5.5.2-6.5,7.8.5,15.9-1.9,23.7-1.2,8.4.9,4.5,7.7,2.8,7.7-5.6,0-22.6,1.1-26.6,0Z"/>
  <path class="st1" d="M313.3,210.3c-9-1.3-17.6,2.3-18.9,12-3.4,24.6,30.9,30.1,32.2,8.9,12,34.7-36.3,57-53.7,23.7-15-28.9,9.1-64.2,40.4-44.6h0Z"/>
  <path class="st1" d="M386.5,210.3c-15.8-4.8-23.1,13.6-14.7,25.6,8.9,12.7,27.7,9.8,29-6.6,11.5,45.9-42.2,56.3-54.3,19.5-7.7-23.4,5.5-50.9,33.1-42.6,2.4.7,5.5,1.8,6.9,4.1h0Z"/>
  <path class="st2" d="M313.3,210.3c7.8,4.9,14,10.6,13.3,20.9-1.4,21.1-35.6,15.6-32.2-8.9,1.3-9.7,10-13.3,18.9-12h0Z"/>
  <path class="st2" d="M386.5,210.3c8.4,2.6,12.3,11.2,14.3,19-1.2,16.4-20,19.3-29,6.6-8.4-12-1.1-30.4,14.7-25.6h0Z"/>
  <path class="st2" d="M334.9,299.8c1.5-.3,2.4,0,3.8.6,9.2,4,8.6,34.7-2.2,35.4-12.7.8-13.1-33.9-1.6-36h0Z"/>
</svg>