<?xml version="1.0" encoding="UTF-8"?>
<svg id="_Слой_1" data-name="Слой 1" xmlns="http://www.w3.org/2000/svg" viewBox="0 0 598.41 595.28">
  <defs>
    <style>
      .cls-1 {
        fill: #e3eef5;
      }

      .cls-2 {
        fill: #03bafd;
      }

      .cls-3 {
        fill: #f9fbfc;
      }

      .cls-4 {
        fill: #020405;
      }
    </style>
  </defs>
  <path class="cls-2" d="M264.79,466.98c-49.84-15.04-91.07-55.11-105.06-105.55-5.33-1.51-10.57-1.05-15.98-3.04-17.62-6.47-26.06-27.4-18.28-44.47,5.55-12.18,17.51-18.08,30.06-20.54,7.14-37.3,26.71-73.32,57.83-95.55.73-1.04-2.9-5.58-3.53-7.23-6.52-17.02,5.83-32.64,23.58-31.66-17.15-25.38-5.35-48.38,26.32-36.29,14.19,5.42,30.06,19.44,38.17,32.19,1.47,2.31,4.63,10.92,6.5,11.56,18.32-.23,36.68,1.57,54.31,6.56,52.63,14.88,94.02,61.63,104.01,115.16,31.65,2.87,42.98,45.92,14.08,61.38-2.8,1.5-13.85,4.33-14.29,4.94-.92,1.28-3.69,13.46-4.91,16.74-16.7,45.08-54.16,81.98-100.57,95.79-22.75,6.77-47.25,8.17-70.69,4.6-6.13-.93-16.52-4.63-21.55-4.6ZM326.6,231.21c.68-10.3-5.49-16-13.31-20.92-31.24-19.6-55.41,15.75-40.36,44.62,17.36,33.29,65.62,10.95,53.67-23.71ZM400.78,229.31c-1.95-7.76-5.91-16.45-14.27-19.01-1.33-2.26-4.49-3.38-6.85-4.09-27.6-8.29-40.81,19.29-33.14,42.64,12.06,36.72,65.77,26.38,54.26-19.54ZM334.91,299.81c-11.49,2.1-11.08,36.78,1.61,35.97,10.84-.7,11.42-31.37,2.2-35.41-1.39-.61-2.26-.84-3.8-.56Z"/>
  <path class="cls-1" d="M357.03,466.98c7.45,1.5,15.55,1.25,23.19,2.02,5.14.52,37.46,4.42,38.61,8,.91,2.84-3.47,4.27-5.48,4.93-19.59,6.45-54.63,6.13-75.85,6.88-38.92,1.37-78.97,1.79-117.76-2.93-12.72-1.55-50.07-7.06-13.16-13.86,16.76-3.09,41.39-4.92,58.21-5.03,5.04-.03,15.42,3.66,21.55,4.6,23.44,3.57,47.95,2.17,70.69-4.6Z"/>
  <path class="cls-2" d="M433.74,129.7c5.68-.51,3.84,5.17,2.68,8.33-1.2,3.27-13.28,27.37-14.71,28.08-2.1,1.04-4.62.69-4.82-1.93-.13-1.71,11.41-29.11,13.16-31.57.95-1.34,1.87-2.75,3.69-2.91Z"/>
  <path class="cls-2" d="M440.07,178.25c1.4-1.7,22.57-17.65,24.67-18.57,5.02-2.22,8.11,2.29,5.05,6l-26.27,18.5c-3.81.71-6.22-2.56-3.45-5.92Z"/>
  <path class="cls-2" d="M451.66,210.29c-2.83-.79-2.71-5.51.16-6.5,7.84.48,15.93-1.94,23.67-1.16,8.4.85,4.5,7.66,2.8,7.66-5.63,0-22.65,1.12-26.63,0Z"/>
  <path class="cls-3" d="M313.29,210.29c-8.95-1.3-17.6,2.29-18.93,11.97-3.39,24.55,30.85,30.06,32.25,8.95,11.95,34.66-36.32,57-53.67,23.71-15.05-28.87,9.12-64.22,40.36-44.62Z"/>
  <path class="cls-3" d="M386.51,210.29c-15.76-4.84-23.09,13.61-14.68,25.61,8.9,12.7,27.74,9.75,28.95-6.6,11.51,45.92-42.2,56.26-54.26,19.54-7.67-23.35,5.54-50.93,33.14-42.64,2.36.71,5.52,1.82,6.85,4.09Z"/>
  <path class="cls-4" d="M313.29,210.29c7.83,4.91,14,10.62,13.31,20.92-1.4,21.11-35.64,15.6-32.25-8.95,1.33-9.67,9.98-13.27,18.93-11.97Z"/>
  <path class="cls-4" d="M386.51,210.29c8.36,2.57,12.32,11.25,14.27,19.01-1.21,16.35-20.05,19.3-28.95,6.6-8.4-12-1.08-30.45,14.68-25.61Z"/>
  <path class="cls-4" d="M334.91,299.81c1.55-.28,2.41-.05,3.8.56,9.22,4.04,8.65,34.71-2.2,35.41-12.68.81-13.1-33.87-1.61-35.97Z"/>
</svg>