<?xml version="1.0" encoding="UTF-8"?>
<svg id="_Слой_1" xmlns="http://www.w3.org/2000/svg" version="1.1" viewBox="0 0 392 382">
  <!-- Generator: Adobe Illustrator 29.6.1, SVG Export Plug-In . SVG Version: 2.1.1 Build 9)  -->
  <defs>
    <style>
      .st0 {
        fill: #03bafd;
      }

      .st1 {
        fill: #f9fbfc;
      }

      .st2 {
        fill: #020405;
      }
    </style>
  </defs>
  <path class="st0" d="M110.7,320.9c-4.7-1.4-10.3-3.5-14.8-5.5-3.4-1.5-12.9-7.6-15.1-8.1-3.7-.8-27.2,4.3-33.8,4.7-11.2.6-28.1,2-33-10.8-5.2-13.5,6.1-26.7,15.2-35.1,2.3-2.1,9.1-6.4,10.4-8.1,2.3-3.1-3-13.2-2.5-17.5-44.7,1-41.5-51.7.5-57.6,2.7-.4,6.9.6,9-.5.9-.4,7.3-12.2,8.8-14.5,16.4-23.7,43.4-42.9,70.2-51.9-1.4-12.9,6.6-24.1,19.9-22.6-3-7.7-8.4-16.3-3.8-24.7,5.1-9.5,18.5-6.4,26.3-2.8,16.8,7.6,29,24.4,34.3,42.2,53.3,9.1,95.8,49.9,91.3,108.4-.5,7-3.3,13.7-3.9,20.7,24,5.2,27.4,33.7,6.8,46.6-12.1,7.6-26.8,5.8-40.4,4.9-17,16-37.9,26.2-59.8,33.1-6.3,0-18.2,4.1-25.7,4.9-19.5,2.1-41,0-59.7-5.7h0s0,0,0,0ZM217.5,220.1c12.1-1.6,17.3-17.8,9.5-27.2-4.4-5.2-13.4-4.1-19.8-4.5-.2,0-1.3-.8-2.7-.9-7-.3-12.5-1.4-16.7,5-7,10.7-.9,26.2,11.8,27.6,4.1.4,13.8.5,17.8,0h0ZM260.2,189.2c-10,1-19.5-1.7-20.6,11.8-.6,6.8,3.6,15.6,10.1,18,3.8,1.4,17.3,1.7,21.5,1.1,11.4-1.6,14.7-19.2,7.9-28-5.7-7.3-11.4-3.6-19-2.8h0Z"/>
  <path class="st1" d="M207.2,188.4c-4.4,11.8.6,24.5,10.3,31.7-4,.5-13.7.5-17.8,0-12.7-1.4-18.8-16.9-11.8-27.6,4.2-6.4,9.7-5.3,16.7-5,1.4,0,2.5.9,2.7.9h0Z"/>
  <path class="st2" d="M217.5,220.1c-9.7-7.2-14.7-19.9-10.3-31.7,6.3.4,15.4-.7,19.8,4.5,7.8,9.4,2.6,25.7-9.5,27.2h0Z"/>
  <path class="st1" d="M260.2,189.2c-2.9,12.2,1.4,23.6,11.1,30.9-4.2.6-17.7.4-21.5-1.1-6.5-2.4-10.7-11.2-10.1-18,1.1-13.5,10.6-10.8,20.6-11.8h0Z"/>
  <path class="st2" d="M271.3,220.1c-9.7-7.3-14-18.7-11.1-30.9,7.6-.7,13.3-4.5,19,2.8,6.8,8.8,3.5,26.4-7.9,28h0Z"/>
</svg>