<?xml version="1.0" encoding="UTF-8"?>
<svg id="_Слой_1" xmlns="http://www.w3.org/2000/svg" version="1.1" viewBox="140 104 392 382">
  <defs>
    <style>
      .st1 {
        fill: #03bafd;
      }

      .st2 {
        fill: #f9fbfc;
      }

      .st3 {
        fill: #020405;
      }
    </style>
  </defs>
  <path class="st1" d="M285.88,477.19c-6.62-1.98-14.55-5.02-20.91-7.85-4.76-2.12-18.24-10.82-21.34-11.47-5.21-1.1-38.53,6.13-47.9,6.66-15.87.9-39.72,2.85-46.68-15.29-7.35-19.14,8.65-37.79,21.48-49.71,3.2-2.97,12.91-9,14.65-11.4,3.19-4.42-4.29-18.65-3.49-24.75-63.22,1.4-58.73-73.16.75-81.58,3.78-.54,9.75.78,12.75-.71,1.25-.62,10.3-17.33,12.5-20.52,23.16-33.56,61.41-60.65,99.31-73.39-1.96-18.32,9.27-34.16,28.14-32.05-4.25-10.95-11.86-23.01-5.44-34.92,7.25-13.44,26.12-9.04,37.2-4.01,23.81,10.79,41.08,34.6,48.48,59.75,75.47,12.83,135.53,70.62,129.14,153.43-.76,9.89-4.6,19.38-5.48,29.24,33.94,7.3,38.79,47.69,9.64,65.9-17.18,10.73-37.94,8.23-57.19,6.95-24,22.66-53.7,37.11-84.67,46.89-8.86-.04-25.8,5.77-36.4,6.89-27.53,2.91-58-.11-84.53-8.04v-.02ZM437.04,334.56c17.07-2.2,24.51-25.22,13.41-38.5-6.18-7.39-19.03-5.76-27.96-6.36-.28-.02-1.77-1.15-3.79-1.23-9.89-.43-17.62-2.03-23.57,7.06-9.88,15.1-1.23,37.07,16.71,39.04,5.79.63,19.51.72,25.2,0h0ZM497.5,290.85c-14.15,1.39-27.54-2.43-29.12,16.68-.8,9.68,5.13,22.08,14.35,25.53,5.42,2.03,24.46,2.34,30.45,1.5,16.19-2.27,20.83-27.23,11.2-39.68-8.02-10.36-16.17-5.08-26.87-4.03h-.01Z"/>
  <path class="st2" d="M422.48,289.7c-6.26,16.75.8,34.73,14.56,44.86-5.69.73-19.41.64-25.2,0-17.94-1.96-26.6-23.93-16.71-39.04,5.95-9.1,13.69-7.5,23.57-7.06,2.01.09,3.51,1.22,3.79,1.23h-.01Z"/>
  <path class="st3" d="M437.04,334.56c-13.76-10.13-20.82-28.11-14.56-44.86,8.93.6,21.78-1.04,27.96,6.36,11.1,13.28,3.66,36.31-13.41,38.5h.01Z"/>
  <path class="st2" d="M497.5,290.85c-4.17,17.22,1.95,33.43,15.68,43.71-5.99.84-25.04.53-30.45-1.5-9.21-3.45-15.15-15.84-14.35-25.53,1.58-19.11,14.97-15.3,29.12-16.68h0Z"/>
  <path class="st3" d="M513.18,334.56c-13.73-10.27-19.85-26.49-15.68-43.71,10.71-1.05,18.86-6.34,26.87,4.03,9.64,12.46,5,37.41-11.2,39.68h.01Z"/>
</svg>
