<?xml version="1.0" encoding="UTF-8"?>
<svg id="_Слой_1" data-name="Слой 1" xmlns="http://www.w3.org/2000/svg" viewBox="0 0 251.24 250.96">
  <defs>
    <style>
      .cls-1 {
        fill: #167dfd;
      }
    </style>
  </defs>
  <path class="cls-1" d="M161.92,50.24c3.23,3.66,2.31,7.91,1.25,12.13-3.15,12.57-11.26,27.65-15.7,40.3-1.43,4.08-4.36,9.98,2.29,11.24,8.13,1.54,32.26-4.55,33.29,7.78.34,4.06-6.46,10.92-9.3,14.26-19.48,22.94-43.43,48.97-64.49,70.51-3.43,3.5-6.45,7.81-12.07,6.04-4.75-1.5-5.38-6.72-4.88-10.98,1.56-13.18,11.44-33.16,14.86-47.15.9-3.69,3.02-10.38-2.47-11.41-9.4-1.76-40.94,6.1-36-12.06,13.3-23.12,23.5-50.21,37.14-72.86,4.09-6.79,7.44-10.4,15.85-11.15,7.77-.69,25.53-.9,33.07.01,2.09.25,5.86,1.86,7.16,3.34Z"/>
</svg>