<?xml version="1.0" encoding="UTF-8"?>
<svg id="_Слой_1" data-name="Слой 1" xmlns="http://www.w3.org/2000/svg" viewBox="0 0 251.24 250.96">
  <defs>
    <style>
      .cls-1 {
        fill: #157efd;
      }
    </style>
  </defs>
  <path class="cls-1" d="M125.97,133.93c-1.67,7.65-7.97,28.72-15.28,32.29-2.98,1.46-5.83-1.11-7.55-.12-.46.26-5.08,7.81-5.57,8.94-4.51,10.35-4.12,20.42,1.58,30.2,1.89,3.24,10.94,10.86,4.1,12.54-5.54,1.37-26.87-11.79-31.77-15.88-33.01-27.61-33.1-76.85-5.51-108.45,12.09-13.84,11.84,10,15.94,13.01,1.74,1.28,2.96-.93,4.01-2.06,9.5-10.29,19.98-36.42,22.79-50.21,2.09-10.26-1.47-25.47,15.11-15.64,13.76,8.15,26.93,30.57,32.89,45.11,1.26,3.08,5.83,19.82,7.75,20.27,10.32-4.18,3.43-30.56,17.46-14.48,30.17,34.57,30.6,89.37-9.05,116.91-4.99,3.47-21.88,11.99-27.44,11.6-7.22-.52,2.53-11.85,3.7-14.34,10.94-23.32-1.08-47.18-16.68-64.7-.93-1.04-5.29-5.93-6.5-4.99Z"/>
</svg>