<?xml version="1.0" encoding="UTF-8"?>
<svg id="_Слой_1" data-name="Слой 1" xmlns="http://www.w3.org/2000/svg" viewBox="0 0 222.62 224.19">
  <defs>
    <style>
      .cls-1 {
        fill: #8fcafa;
      }

      .cls-2 {
        fill: #06a1fb;
      }

      .cls-3 {
        fill: #b8cdf5;
      }

      .cls-4 {
        fill: #01131d;
      }
    </style>
  </defs>
  <path class="cls-1" d="M190.98,193.34c-2.94-2.53,11.11-5.06,12.49-5.07,2.68-.02,10.41,1.01,6.87,4.12-.12.11-1.77.95-1.87.95h-17.49Z"/>
  <path class="cls-2" d="M174.99,133.4c-.25-4.71-1.45-6.07-3-9.99-3.49-8.79-6.11-12.6-12.99-18.98-3.89-3.61-7.39-6.72-12.31-9.18-3.33-1.66-10.16-3.09-12.22-4.77-1.61-1.31-2.24-4.23-3.93-6.06-5.4-5.88-19.34-18.33-27.48-12.44-6.72,4.87,1,11.54-.03,12.46-3.7-.8-7.74,2.95-7.97,6.55-.09,1.41,1.3,3.95.97,4.4-.34.46-7.83,3.99-9.9,5.62-6.11,4.83-12.81,12.51-14.08,20.4-4.66-1.36-10.71.79-13.99,4-6.27,6.12-6.79,15.33.51,20.97,2.41,1.86,6.7,2.67,7.98,4.01,1.8,1.86,1.78,7.21,3.32,9.68.04,2.23-9.75,6.89-9.88,15.8-.02,1.29.47,4.44,1.07,5.48,4.03,7.03,18.46,4.75,25.23,3.74,3.28-.49,7.32-2.77,10.25-2.77,3.98,0,12.57,3.46,18.11,3.9,8.85.7,16.94-.5,25.56-2.17,2.16-.42,6.79-2.77,8.16-2.5,1.18.23,4.06,4.1,6.9,5.03,4.5,1.47,10.14,1.37,14.07-1.38.69-.48,4.52-4.54,4.65-4.85.97-2.31.55-5.69,0-7.99-.33-1.37-3.57-8.74-4-8.99,1.22-5.32,4.6-3.25,8.03-4.47,13.21-4.68,10.53-23.13-3.03-25.5ZM133.54,141.39c-2.07-.48-.95-7.34-10.02-7.08-6.69.2-7.7,6.56-9.97,6.08-4.87-1.04,3.35-9.07,8.24-9.77,6.82-.98,12.64,2.37,14.24,9.25l-2.49,1.52ZM149.65,137.54c-.46.35-6.31,7.52-5.65,2.35,1.37-10.67,19.65-9.94,21.98,1.01l-3.94,1.46c-.99-6.3-7.26-8.74-12.39-4.82Z"/>
  <path class="cls-3" d="M61.07,181.35c4.03,7.03,18.46,4.75,25.22,3.74,3.28-.49,7.32-2.77,10.25-2.77,3.99,0,12.57,3.46,18.12,3.9,8.84.7,16.94-.5,25.56-2.17,2.16-.42,6.79-2.77,8.16-2.5,1.17.23,4.05,4.1,6.9,5.03,4.5,1.48,10.14,1.38,14.07-1.37.69-.48,4.51-4.54,4.64-4.85,23.08,6.53,4.17,10.35-7.62,11.86-28.48,3.65-70.28,3.83-98.7,0-11.1-1.49-29.07-5.33-6.61-10.87Z"/>
  <path class="cls-1" d="M35.08,189.35c2.25,3-10.75,4.06-12.49,4.07-2.1,0-11.72-1.04-12.48-2.6-.85-1.75,1.75-1.83,2.78-2.17,8.59-2.83,13.73-2.64,22.19.7Z"/>
  <path class="cls-1" d="M207.97,167.37c.55.56-.05,3.44-.99,4.5-.72.82-17.27,9.17-17.99,8.48-.42-1.86,1.03-2.37,1.99-3.5,1.98-2.34,14.74-11.75,16.99-9.48Z"/>
  <path class="cls-1" d="M46.07,180.34c-.67.72-13.64-7.02-14.52-7.95-3.07-3.2-1.19-6.17,3.11-4.11,1.96.94,13.61,9.68,11.41,12.06Z"/>
  <path class="cls-4" d="M136.03,139.87l-2.49,1.52c-2.07-.48-.95-7.34-10.02-7.08-6.69.2-7.7,6.56-9.97,6.08-4.87-1.04,3.35-9.07,8.24-9.77,6.82-.98,12.64,2.37,14.24,9.25Z"/>
  <path class="cls-4" d="M165.97,140.9l-3.94,1.46c-.99-6.3-7.26-8.74-12.39-4.82-.46.35-6.31,7.52-5.65,2.35,1.37-10.67,19.65-9.94,21.98,1.01Z"/>
</svg>