<?xml version="1.0" encoding="UTF-8"?>
<svg id="_Слой_1" data-name="Слой 1" xmlns="http://www.w3.org/2000/svg" viewBox="0 0 222.62 224.19">
  <defs>
    <style>
      .cls-1 {
        fill: #e885b3;
      }

      .cls-2 {
        fill: #06a1fb;
      }

      .cls-3 {
        fill: #0b0a0a;
      }

      .cls-4 {
        fill: #bbcdf3;
      }

      .cls-5 {
        fill: #50b6fa;
      }

      .cls-6 {
        fill: #01131d;
      }
    </style>
  </defs>
  <path class="cls-4" d="M186.84,184.51c-21.25,6.66-62.53,6.67-85.28,5.74-11.77-.48-44.39-2.56-54-6.96-7.45-3.4,6.27-8.04,10.57-7.07,1.23.28,2.7,2.52,4.28,3.22,11,4.86,18.87-1.7,28.37-1.91,3.76-.08,13.97,4.19,19.83,4.67,9.84.81,16.59-1.23,25.47-1.98,1.23-.11,3.98-.24,4.99,0,.22.05.95,1.32,1.95,1.51,7.3,1.42,18.74,2.78,19.04-7.51,5.44.01,25.88,2.03,29.03,5.45,2.64,2.86-1.93,4.11-4.25,4.84Z"/>
  <circle class="cls-5" cx="171.57" cy="80.26" r="5.84"/>
  <circle class="cls-5" cx="181.54" cy="98.34" r="4.2"/>
  <path class="cls-2" d="M191.04,149.25c-1.68-7.25-6.22-11.17-13.99-10.99-2.87-7.54-3.14-15.69-6.51-23.96-5.99-14.69-18.43-26.2-33.2-31.75-3.2-1.2-11.39-2.45-12.96-3.54-1.07-.75-3.26-5.04-4.65-6.33-5.9-5.48-27.26-16.69-31.88-6.09-2.56,5.89,4.56,9.29,3.26,10.72-8.77-1.11-6.09,9.72-7.13,10.92-.41.48-2.46-.16-2.87.08-.34.2-3.31,4.29-4.99,5.99-13.35,13.43-16.68,27.23-16.48,45.97-15.9,6.47-24.38,26.88-1.61,30.05l.1,5.9c1.23.28,2.7,2.52,4.28,3.22,11,4.86,18.87-1.7,28.37-1.91,3.76-.08,13.97,4.19,19.83,4.67,9.84.81,16.59-1.23,25.47-1.98-3.81-2.44-5.1-12.97-7-14.99-.72-.77-5.63-.69-.53-5.03,5.54-4.72,21.39-3.07,14.52,6.03,1.43,3.73,1.1,10.91-2,13.99.22.05.95,1.32,1.95,1.51,7.3,1.42,18.74,2.78,19.04-7.51.06-2.16-.97-5.31-.77-6.38.06-.33,3.67-5.26,3.95-5.43,1.89-1.11,12.43,4.17,20.5.02,6.03-3.09,6.63-7.44,5.3-13.18ZM127.1,145.77c-6.6,7.24-19.78,3.15-20-6.51.92.06,1.94-.26,2.8.23,1.84,1.07,2.29,6.45,8.88,6.47,5.3.02,6.37-5.49,8.91-6.59,4.73-2.05.63,5.06-.59,6.4ZM140.09,140.76l3.86-1.37c4.94,10.06,11.81,7.19,16.62-1.13l2.49,1.52c-5.02,13.37-16.23,12.63-22.97.98Z"/>
  <path class="cls-5" d="M149.01,64.75c-.27,6.28-9.68,16.13-10.93,10.06-.31-1.51,7.1-5.02,5.8-11.73-1.36-7.01-14.18-13.02-20.36-12.67-2.28.13-4.34,4.27-6.79,3.78-1.79-.35-1.85-3.36-7.07-3.9-13.74-1.42-42.21,7.98-52.08,17.99-16.26,16.51,11.53,21.3,23.53,20.03-.34.2-3.31,4.29-4.99,5.99.58-3.5-6.04-1.77-8.38-2.12-10.75-1.58-24.44-6.13-19.09-19.85,6.64-16.98,43.9-27.55,60.78-27.14,3.47-1.61,5.53-11.11,8.3-11.64,4.26-.82,4.68,9.79,7.54,12.61,9.38.37,24.22,7.62,23.74,18.59Z"/>
  <path class="cls-1" d="M141.07,180.22c-1.01-.24-3.76-.11-4.99,0-3.81-2.44-5.1-12.97-7-14.99,2.81-3.18,12.62-2.58,13.99,1,1.43,3.73,1.1,10.91-2,13.99Z"/>
  <path class="cls-6" d="M163.06,139.78c-5.02,13.37-16.23,12.63-22.97.98l3.86-1.37c4.94,10.06,11.81,7.19,16.62-1.13l2.49,1.52Z"/>
  <path class="cls-6" d="M127.1,145.77c-6.6,7.24-19.78,3.15-20-6.51.92.06,1.94-.26,2.8.23,1.84,1.07,2.29,6.45,8.88,6.47,5.3.02,6.37-5.49,8.91-6.59,4.73-2.05.63,5.06-.59,6.4Z"/>
  <path class="cls-3" d="M143.07,166.23c-1.37-3.58-11.18-4.18-13.99-1-.72-.77-5.63-.69-.53-5.03,5.54-4.72,21.39-3.07,14.52,6.03Z"/>
</svg>