<?xml version="1.0" encoding="UTF-8"?>
<svg id="_Слой_1" data-name="Слой 1" xmlns="http://www.w3.org/2000/svg" viewBox="0 0 222.62 224.19">
  <defs>
    <style>
      .cls-1 {
        fill: #f3f8fa;
      }

      .cls-2 {
        fill: #06a1fb;
      }

      .cls-3 {
        fill: #b8cdf5;
      }

      .cls-4 {
        fill: #35a8fc;
      }

      .cls-5 {
        fill: #0b0a0a;
      }
    </style>
  </defs>
  <path class="cls-4" d="M190.29,87.91v2.97c-8.47.26-8.21,6.15-11.51,11.99l-4.77-9.69-8.69-3.79c7.3-3.08,11.17-4.75,11.98-13.48,4.42.3,2.47,6.04,5.45,9.03,1.63,1.63,5.18,2.86,7.53,2.97Z"/>
  <path class="cls-4" d="M40.37,79.9c.51.5,1.64,6.84,3.57,8.93,2.36,2.57,8.61,2.16,7.45,5.55-7.51,1.88-8.52,6.22-11.51,12.47-3.72-6.15-4.01-11.34-12.5-12.48.04-2.5,5.38-3.11,7.55-5.44,2.46-2.63,2.16-4.96,3.35-7.64.4-.9.42-3.04,2.08-1.4Z"/>
  <path class="cls-3" d="M162.83,188.83c-1.94,3.04-25.36,5.75-29.97,6-14.25.78-60.89,1.08-72.21-4.82-1.15-.59-3.21-1.53-1.81-3.24l7.52-2.97c.09.29,3.55,3.8,4.27,4.23,4.85,2.87,17.56,2.16,22.93.48,7.25-2.26,3.43-2.78,12.29-2.71,5.73.04,15.49-1.4,19.88-.99,5.96.56,9.34,4.92,19.14,4.03,5.27-.47,6.95-3.52,9.44-4.04,1.98-.42,10.07.4,8.52,4.03Z"/>
  <path class="cls-2" d="M164.3,122.86c-.06-.28-2.5-3.91-3-4.99-6.75-14.81-17.65-23.42-33.18-28.28-2.85-.89-6.65-.51-9.1-1.88-5.23-2.94-8.33-10.46-18-13.98-12.07-4.38-24.44-1.12-13.67,12.16-3.68-.81-7.77,2.96-7.97,6.55-.1,1.9,1.71,4.74.8,6.26-.19.32-2.04.86-2.83,1.63-6.69,6.45-11.86,13.25-13.99,22.53-3.09-.61-4.64.4-6.99,1-10.8,2.77-11.9,14.86-4.99,22.47,2.36,2.59,8.73,5.19,10.05,6.94,1.32,1.76,1.55,5.71,2.76,8.23,1,2.09,4.88,7.44,5.03,8.03.61,2.28-4.69,8.54-2.86,14.27.09.29,3.55,3.8,4.27,4.23,4.85,2.87,17.56,2.16,22.93.48,7.25-2.26,3.43-2.78,12.29-2.71,5.73.04,15.49-1.4,19.88-.99,5.96.56,9.34,4.92,19.14,4.03,5.27-.47,6.95-3.52,9.44-4.04,2.65-3.5-.9-12.82-.48-14,.45-1.27,4.49-5.22,5.67-7.28,1.67-2.96,3.88-9.74,5.35-11.63,1.67-2.15,7.88-4.22,10.96-8.03,8.69-10.75,2.97-25.7-11.51-21ZM104.83,129.86c-12.84-8.3-4.58-29.43,11.23-24.21,5.13,1.69,4.69,3.63,6.27,7.22.01,0,.02.03.03.04.24.21,1.58.53,1.95,2.43,2.29,11.9-8.81,21.41-19.48,14.52ZM128.37,149.8c.76-4.29-3.44-3.16-4.38-5.16-4.58-9.67,7.08-5.15,12.37-6.37,4.07,3.01-3.03,12.89-7.99,11.53ZM153.92,120.82c-1.06,11.66-14.3,14.59-21.03,4.97-9.81-14.03,9.43-30.01,18.42-13.92,1.6,2.87,1.85,3.35,2,7,0,.1.74.44.61,1.95Z"/>
  <path class="cls-1" d="M104.83,129.86c-12.84-8.3-4.58-29.43,11.23-24.21,5.13,1.69,4.69,3.63,6.27,7.22-3.07-4.8-11.36-3.92-12.03,3.49-1.4,15.38,19.26,7.95,12.06-3.45.24.21,1.58.53,1.95,2.43,2.29,11.9-8.81,21.41-19.48,14.52Z"/>
  <path class="cls-1" d="M153.92,120.82c-1.06,11.66-14.3,14.59-21.03,4.97-9.81-14.03,9.43-30.01,18.42-13.92-19.2-8.91-10.17,27.17,2,7,0,.1.74.44.61,1.95Z"/>
  <path class="cls-5" d="M153.31,118.87c-12.17,20.17-21.2-15.91-2-7,1.6,2.87,1.85,3.35,2,7Z"/>
  <path class="cls-5" d="M128.37,149.8c.76-4.29-3.44-3.16-4.38-5.16-4.58-9.67,7.08-5.15,12.37-6.37,4.07,3.01-3.03,12.89-7.99,11.53Z"/>
  <path class="cls-5" d="M110.3,116.36c.67-7.41,8.96-8.29,12.03-3.49.01,0,.02.03.03.04,7.2,11.4-13.46,18.83-12.06,3.45Z"/>
</svg>