<?xml version="1.0" encoding="UTF-8"?>
<svg id="_Слой_1" data-name="Слой 1" xmlns="http://www.w3.org/2000/svg" viewBox="0 0 222.62 224.19">
  <defs>
    <style>
      .cls-1 {
        fill: #06a1fb;
      }

      .cls-2 {
        fill: #bbcdf3;
      }

      .cls-3 {
        fill: #01131d;
      }
    </style>
  </defs>
  <path class="cls-1" d="M160.3,118.73c.1-.61-.04-1.35,0-2,.34-5.88-.21-5.7-2-10.99-4.21-12.42-6.76-16.1-16.99-23.98-10.94-8.42-16.13-6.54-24.91-11.56-8.69-4.97-11.22-14.99-25.69-16.32-9.7-.89-12.37,6.73-6.37,13.41v1.47c-9.17-.24-4.42,10.38-5.43,11.99-.53.84-6.69,5.32-8.53,7.53-6.15,7.35-10.75,17.72-10.02,27.45-3.49.3-5.47,1.97-7.99,3.99-9.3,7.47-7.7,20.36,3.92,23.56,2.24.61,5.49-.06,7.09.9.4.24,5.02,7.26,5.25,7.8,1.56,3.67-2.89,10.8-1.27,15.7.91.28,2.11,3.23,4.25,4.24,5.61,2.63,14.73,1.89,20.53.05,2.59-.82,7.33-4.13,8.64-4.19,3.13-.15,16.45-.35,18.96-.1,4,.39,8.71,5.18,16.07,5.07,7.36-.12,8.81-4.45,11.5-5.07,2.34-3.13-.31-10.11.47-11.96.27-.67,7.9-11.16,8.53-11.51,2.07-1.16,5.72-.27,8.9-2.09,10.16-5.81,6.69-22.25-4.91-23.39ZM118.84,112.73c-4.07-9.83-14.11-10.84-17.63-.13l-2.87.13c-.63-13.89,20.23-14.92,22.99-1.52l-2.49,1.52ZM151.3,111.73c-3.96,2.84-4.03-2.55-6.04-4.44-5.64-5.32-11.12-.33-13.46,5.44-5.05,1.26-1.53-10.78,8-11.07,6.77-.21,8.21,3.19,11.5,8.07.13.61-.14,1.43,0,2Z"/>
  <path class="cls-3" d="M121.33,111.21l-2.49,1.52c-4.07-9.83-14.11-10.84-17.63-.13l-2.87.13c-.63-13.89,20.23-14.92,22.99-1.52Z"/>
  <path class="cls-3" d="M151.3,111.73c-3.96,2.84-4.03-2.55-6.04-4.44-5.64-5.32-11.12-.33-13.46,5.44-5.05,1.26-1.53-10.78,8-11.07,6.77-.21,8.21,3.19,11.5,8.07.13.61-.14,1.43,0,2Z"/>
  <path class="cls-2" d="M143.6,194.96c-.44.65-13.39,2.75-15.5,3-13.63,1.58-34.08,1.88-47.28-1.67-2.36-.63-6.81-.83-7.17-3.8,1.2-5.17,43.25-4.95,49.5-4.55,3.87.25,15.72,1.71,18.73,3.26,1.57.81,2.55,2.54,1.71,3.77Z"/>
</svg>