<?xml version="1.0" encoding="UTF-8"?>
<svg id="_Слой_3" data-name="Слой 3" xmlns="http://www.w3.org/2000/svg" viewBox="0 0 251.24 250.96">
  <defs>
    <style>
      .cls-1 {
        fill: #f9fbfd;
      }

      .cls-2 {
        fill: #fcfdfd;
      }
    </style>
  </defs>
  <path class="cls-2" d="M37.09,124.05c.56,5.23,4.48,10.77,8.66,13.83,2.1,1.54,5.99,1.36,5.33,4.15-9.35,1.17-10.41,6.81-13.89,13.59-.53,1.04.53,1.89-2.08,1.42-.41-4.45-4.17-11.22-8.08-13.41-2.69-1.52-7.43-.53-6.92-3.57,9.67-.74,10.74-8.57,14.74-14.71.63-.96-.11-1.79,2.23-1.29Z"/>
  <path class="cls-1" d="M199.91,34.1c1.72,1.42,7.74,5.63,6.55,7.98-1.49,2.95-24.79,19.26-29.54,23.48-16.32,14.53-33.36,33.82-46.89,51.03-30.68,39.02-53.55,82.28-73.97,127.39-2.4.33-2.25-.17-1.79-2.29,8.82-39.87,49.3-107.13,74.72-139.63,14.99-19.18,34.92-39.46,52.94-55.97.52-.47,6.61-2.35,8.74-3.75,3.3-2.18,5.98-5.65,9.24-8.24Z"/>
  <path class="cls-2" d="M168.95,16.11c-1.97-.02-2.77,1.35-4.01,2.48-22,19.98-39.34,44.41-54.92,69.48-18.99,30.56-34.17,62.02-46.42,95.97-5.11,14.17-8.12,29.22-14.52,42.95l-2.79-2.27C64.82,143.83,101.12,64.56,161.96,7.12c1.59,1.89,6.5,4.91,7.56,7.08.9,1.08-.54,1.73-.57,1.91Z"/>
  <path class="cls-2" d="M163.99,117.21c.56,5.23,4.48,10.77,8.66,13.83,2.1,1.54,5.99,1.36,5.33,4.15-9.35,1.17-10.41,6.81-13.89,13.59-.53,1.04.53,1.89-2.08,1.42-.41-4.45-4.17-11.22-8.08-13.41-2.69-1.52-7.43-.53-6.92-3.57,9.67-.74,10.74-8.57,14.74-14.71.63-.96-.11-1.79,2.23-1.29Z"/>
</svg>